M48
; DRILL file {KiCad 8.0.2} date 2024-06-04T11:42:47+0900
; FORMAT={-:-/ absolute / inch / decimal}
; #@! TF.CreationDate,2024-06-04T11:42:47+09:00
; #@! TF.GenerationSoftware,Kicad,Pcbnew,8.0.2
; #@! TF.FileFunction,Plated,1,2,PTH
FMAT,2
INCH
; #@! TA.AperFunction,Plated,PTH,ViaDrill
T1C0.0157
; #@! TA.AperFunction,Plated,PTH,ComponentDrill
T2C0.0374
; #@! TA.AperFunction,Plated,PTH,ComponentDrill
T3C0.1063
%
G90
G05
T1
X3.0319Y-2.3732
X3.0319Y-2.4126
X3.0319Y-2.452
X3.0319Y-2.4913
X3.0319Y-2.5307
X3.0319Y-2.5701
X3.0713Y-2.3732
X3.0713Y-2.4126
X3.0713Y-2.452
X3.0713Y-2.4913
X3.0713Y-2.5307
X3.0713Y-2.5701
X3.1106Y-2.3732
X3.1106Y-2.4126
X3.1106Y-2.452
X3.1106Y-2.4913
X3.1106Y-2.5307
X3.1106Y-2.5701
X3.15Y-2.3732
X3.15Y-2.4126
X3.15Y-2.452
X3.15Y-2.4913
X3.15Y-2.5307
X3.15Y-2.5701
X3.1894Y-2.3732
X3.1894Y-2.4126
X3.1894Y-2.452
X3.1894Y-2.4913
X3.1894Y-2.5307
X3.1894Y-2.5701
X3.2287Y-2.3732
X3.2287Y-2.4126
X3.2287Y-2.452
X3.2287Y-2.4913
X3.2287Y-2.5307
X3.2287Y-2.5701
X3.2681Y-2.3732
X3.2681Y-2.4126
X3.2681Y-2.452
X3.2681Y-2.4913
X3.2681Y-2.5307
X3.2681Y-2.5701
X3.3075Y-2.3732
X3.3075Y-2.4126
X3.3075Y-2.452
X3.3075Y-2.4913
X3.3075Y-2.5307
X3.3075Y-2.5701
X4.6303Y-2.3496
X4.6303Y-2.389
X4.6303Y-2.4283
X4.6303Y-2.4677
X4.6303Y-2.5071
X4.6303Y-2.5465
X4.6697Y-2.3496
X4.6697Y-2.389
X4.6697Y-2.4283
X4.6697Y-2.4677
X4.6697Y-2.5071
X4.6697Y-2.5465
X4.7091Y-2.3496
X4.7091Y-2.389
X4.7091Y-2.4283
X4.7091Y-2.4677
X4.7091Y-2.5071
X4.7091Y-2.5465
X4.7484Y-2.3496
X4.7484Y-2.389
X4.7484Y-2.4283
X4.7484Y-2.4677
X4.7484Y-2.5071
X4.7484Y-2.5465
X4.7878Y-2.3496
X4.7878Y-2.389
X4.7878Y-2.4283
X4.7878Y-2.4677
X4.7878Y-2.5071
X4.7878Y-2.5465
X4.8272Y-2.3496
X4.8272Y-2.389
X4.8272Y-2.4283
X4.8272Y-2.4677
X4.8272Y-2.5071
X4.8272Y-2.5465
X4.8665Y-2.3496
X4.8665Y-2.389
X4.8665Y-2.4283
X4.8665Y-2.4677
X4.8665Y-2.5071
X4.8665Y-2.5465
X4.9059Y-2.3496
X4.9059Y-2.389
X4.9059Y-2.4283
X4.9059Y-2.4677
X4.9059Y-2.5071
X4.9059Y-2.5465
T2
X3.4382Y-3.072
X3.4382Y-3.1705
X3.4382Y-3.2689
X3.4382Y-3.3673
X3.7256Y-3.1094
X3.824Y-3.1094
X4.1016Y-3.1094
X4.2Y-3.1094
X4.513Y-3.0602
X4.513Y-3.1587
X4.513Y-3.2571
X4.513Y-3.3555
T3
X3.7339Y-2.1917
X3.7339Y-2.3886
X4.2559Y-2.1874
X4.2559Y-2.3843
M30
