%TF.GenerationSoftware,KiCad,Pcbnew,8.0.2*%
%TF.CreationDate,2024-06-04T11:42:55+09:00*%
%TF.ProjectId,RoboMaster branch circuit substrate,526f626f-4d61-4737-9465-72206272616e,rev?*%
%TF.SameCoordinates,Original*%
%TF.FileFunction,Copper,L1,Top*%
%TF.FilePolarity,Positive*%
%FSLAX46Y46*%
G04 Gerber Fmt 4.6, Leading zero omitted, Abs format (unit mm)*
G04 Created by KiCad (PCBNEW 8.0.2) date 2024-06-04 11:42:55*
%MOMM*%
%LPD*%
G01*
G04 APERTURE LIST*
G04 Aperture macros list*
%AMRoundRect*
0 Rectangle with rounded corners*
0 $1 Rounding radius*
0 $2 $3 $4 $5 $6 $7 $8 $9 X,Y pos of 4 corners*
0 Add a 4 corners polygon primitive as box body*
4,1,4,$2,$3,$4,$5,$6,$7,$8,$9,$2,$3,0*
0 Add four circle primitives for the rounded corners*
1,1,$1+$1,$2,$3*
1,1,$1+$1,$4,$5*
1,1,$1+$1,$6,$7*
1,1,$1+$1,$8,$9*
0 Add four rect primitives between the rounded corners*
20,1,$1+$1,$2,$3,$4,$5,0*
20,1,$1+$1,$4,$5,$6,$7,0*
20,1,$1+$1,$6,$7,$8,$9,0*
20,1,$1+$1,$8,$9,$2,$3,0*%
G04 Aperture macros list end*
%TA.AperFunction,SMDPad,CuDef*%
%ADD10R,8.000000X6.000000*%
%TD*%
%TA.AperFunction,SMDPad,CuDef*%
%ADD11R,8.000000X4.000000*%
%TD*%
%TA.AperFunction,ComponentPad*%
%ADD12RoundRect,0.250000X-0.725000X0.600000X-0.725000X-0.600000X0.725000X-0.600000X0.725000X0.600000X0*%
%TD*%
%TA.AperFunction,ComponentPad*%
%ADD13O,1.950000X1.700000*%
%TD*%
%TA.AperFunction,ComponentPad*%
%ADD14RoundRect,0.250000X-0.600000X-0.725000X0.600000X-0.725000X0.600000X0.725000X-0.600000X0.725000X0*%
%TD*%
%TA.AperFunction,ComponentPad*%
%ADD15O,1.700000X1.950000*%
%TD*%
%TA.AperFunction,ComponentPad*%
%ADD16R,3.800000X3.800000*%
%TD*%
%TA.AperFunction,ComponentPad*%
%ADD17C,4.000000*%
%TD*%
%TA.AperFunction,ComponentPad*%
%ADD18RoundRect,0.250000X0.725000X-0.600000X0.725000X0.600000X-0.725000X0.600000X-0.725000X-0.600000X0*%
%TD*%
%TA.AperFunction,ViaPad*%
%ADD19C,1.000000*%
%TD*%
%TA.AperFunction,Conductor*%
%ADD20C,0.200000*%
%TD*%
G04 APERTURE END LIST*
D10*
%TO.P,J11,1 GNDA*%
%TO.N,/-*%
X80410000Y-62580000D03*
D11*
%TO.P,J11,2 vcc*%
%TO.N,/+*%
X80410000Y-55580000D03*
%TD*%
D12*
%TO.P,J1,1,Pin_1*%
%TO.N,+5V*%
X87330000Y-78030000D03*
D13*
%TO.P,J1,2,Pin_2*%
%TO.N,/CANH*%
X87330000Y-80530000D03*
%TO.P,J1,3,Pin_3*%
%TO.N,/CANL*%
X87330000Y-83030000D03*
%TO.P,J1,4,Pin_4*%
%TO.N,GND*%
X87330000Y-85530000D03*
%TD*%
D14*
%TO.P,J3,1,Pin_1*%
%TO.N,/CANH*%
X94630000Y-78980000D03*
D15*
%TO.P,J3,2,Pin_2*%
%TO.N,/CANL*%
X97130000Y-78980000D03*
%TD*%
D14*
%TO.P,J4,1,Pin_1*%
%TO.N,/CANH*%
X104180000Y-78980000D03*
D15*
%TO.P,J4,2,Pin_2*%
%TO.N,/CANL*%
X106680000Y-78980000D03*
%TD*%
D16*
%TO.P,J14,1,Pin_1*%
%TO.N,/-*%
X108100000Y-60560000D03*
D17*
%TO.P,J14,2,Pin_2*%
%TO.N,/+*%
X108100000Y-55560000D03*
%TD*%
D16*
%TO.P,J13,1,Pin_1*%
%TO.N,/-*%
X94840000Y-60670000D03*
D17*
%TO.P,J13,2,Pin_2*%
%TO.N,/+*%
X94840000Y-55670000D03*
%TD*%
D10*
%TO.P,J12,1 GNDA*%
%TO.N,/-*%
X121110000Y-62230000D03*
D11*
%TO.P,J12,2 vcc*%
%TO.N,/+*%
X121110000Y-55230000D03*
%TD*%
D18*
%TO.P,J2,1,Pin_1*%
%TO.N,+5V*%
X114630000Y-85230000D03*
D13*
%TO.P,J2,2,Pin_2*%
%TO.N,/CANH*%
X114630000Y-82730000D03*
%TO.P,J2,3,Pin_3*%
%TO.N,/CANL*%
X114630000Y-80230000D03*
%TO.P,J2,4,Pin_4*%
%TO.N,GND*%
X114630000Y-77730000D03*
%TD*%
D19*
%TO.N,/-*%
X81010000Y-64280000D03*
X122610000Y-61680000D03*
X83010000Y-60280000D03*
X77010000Y-62280000D03*
X79010000Y-65280000D03*
X124610000Y-62680000D03*
X120610000Y-63680000D03*
X83010000Y-63280000D03*
X82010000Y-61280000D03*
X124610000Y-63680000D03*
X78010000Y-62280000D03*
X80010000Y-60280000D03*
X119610000Y-64680000D03*
X82010000Y-60280000D03*
X80010000Y-65280000D03*
X120610000Y-59680000D03*
X80010000Y-63280000D03*
X123610000Y-62680000D03*
X122610000Y-59680000D03*
X79010000Y-63280000D03*
X117610000Y-63680000D03*
X78010000Y-60280000D03*
X82010000Y-64280000D03*
X118610000Y-64680000D03*
X124610000Y-64680000D03*
X122610000Y-62680000D03*
X83010000Y-61280000D03*
X77010000Y-60280000D03*
X123610000Y-61680000D03*
X78010000Y-61280000D03*
X78010000Y-65280000D03*
X81010000Y-62280000D03*
X82010000Y-65280000D03*
X80010000Y-61280000D03*
X120610000Y-62680000D03*
X117610000Y-62680000D03*
X117610000Y-64680000D03*
X83010000Y-62280000D03*
X121610000Y-62680000D03*
X120610000Y-61680000D03*
X121610000Y-60680000D03*
X79010000Y-60280000D03*
X121610000Y-61680000D03*
X78010000Y-63280000D03*
X117610000Y-61680000D03*
X120610000Y-64680000D03*
X84010000Y-62280000D03*
X123610000Y-64680000D03*
X122610000Y-60680000D03*
X119610000Y-62680000D03*
X79010000Y-64280000D03*
X118610000Y-59680000D03*
X123610000Y-59680000D03*
X84010000Y-65280000D03*
X77010000Y-65280000D03*
X77010000Y-61280000D03*
X84010000Y-61280000D03*
X81010000Y-63280000D03*
X124610000Y-61680000D03*
X80010000Y-64280000D03*
X121610000Y-64680000D03*
X121610000Y-59680000D03*
X122610000Y-63680000D03*
X79010000Y-62280000D03*
X119610000Y-60680000D03*
X118610000Y-62680000D03*
X122610000Y-64680000D03*
X81010000Y-60280000D03*
X80010000Y-62280000D03*
X81010000Y-65280000D03*
X118610000Y-60680000D03*
X79010000Y-61280000D03*
X78010000Y-64280000D03*
X117610000Y-60680000D03*
X117610000Y-59680000D03*
X119610000Y-61680000D03*
X124610000Y-59680000D03*
X119610000Y-59680000D03*
X81010000Y-61280000D03*
X123610000Y-63680000D03*
X121610000Y-63680000D03*
X77010000Y-64280000D03*
X84010000Y-63280000D03*
X123610000Y-60680000D03*
X83010000Y-65280000D03*
X124610000Y-60680000D03*
X84010000Y-64280000D03*
X82010000Y-62280000D03*
X120610000Y-60680000D03*
X82010000Y-63280000D03*
X118610000Y-63680000D03*
X118610000Y-61680000D03*
X119610000Y-63680000D03*
X83010000Y-64280000D03*
X77010000Y-63280000D03*
X84010000Y-60280000D03*
%TD*%
D20*
%TO.N,/CANH*%
X104180000Y-78980000D02*
X102630000Y-80530000D01*
X87330000Y-80530000D02*
X112430000Y-80530000D01*
X94630000Y-78980000D02*
X93080000Y-80530000D01*
X112430000Y-80530000D02*
X114630000Y-82730000D01*
X87330000Y-80680000D02*
X87430000Y-80680000D01*
%TO.N,+5V*%
X87280000Y-78230000D02*
X87330000Y-78180000D01*
%TO.N,GND*%
X115280000Y-77880000D02*
X114630000Y-77880000D01*
%TD*%
%TA.AperFunction,Conductor*%
%TO.N,/+*%
G36*
X124560103Y-51810917D02*
G01*
X124602914Y-51834293D01*
X124617784Y-51843849D01*
X124774867Y-51961441D01*
X124788237Y-51973027D01*
X124926972Y-52111762D01*
X124938558Y-52125132D01*
X125033293Y-52251683D01*
X125056146Y-52282210D01*
X125065711Y-52297095D01*
X125159740Y-52469298D01*
X125167089Y-52485390D01*
X125195912Y-52562666D01*
X125200897Y-52632357D01*
X125167413Y-52693681D01*
X125106090Y-52727166D01*
X125079731Y-52730000D01*
X123963552Y-52730000D01*
X121463553Y-55230000D01*
X123963553Y-57730000D01*
X125157828Y-57730000D01*
X125157841Y-57729999D01*
X125162243Y-57729526D01*
X125231003Y-57741930D01*
X125282141Y-57789540D01*
X125299500Y-57852815D01*
X125299500Y-58376000D01*
X125279815Y-58443039D01*
X125227011Y-58488794D01*
X125175500Y-58500000D01*
X110159048Y-58500000D01*
X110092009Y-58480315D01*
X110090157Y-58479102D01*
X110078231Y-58471133D01*
X110078229Y-58471132D01*
X110078226Y-58471131D01*
X110019752Y-58459500D01*
X110019748Y-58459500D01*
X106180252Y-58459500D01*
X106180247Y-58459500D01*
X106121773Y-58471131D01*
X106121769Y-58471133D01*
X106109843Y-58479102D01*
X106043165Y-58499980D01*
X106040952Y-58500000D01*
X76424500Y-58500000D01*
X76357461Y-58480315D01*
X76311706Y-58427511D01*
X76300500Y-58376000D01*
X76300500Y-58204000D01*
X76320185Y-58136961D01*
X76372989Y-58091206D01*
X76424500Y-58080000D01*
X77556447Y-58080000D01*
X77556447Y-58079999D01*
X78263552Y-58079999D01*
X78263553Y-58080000D01*
X82556447Y-58080000D01*
X82556447Y-58079999D01*
X80410000Y-55933553D01*
X78263552Y-58079999D01*
X77556447Y-58079999D01*
X80056447Y-55580000D01*
X80763553Y-55580000D01*
X83263553Y-58080000D01*
X84457828Y-58080000D01*
X84457844Y-58079999D01*
X84517372Y-58073598D01*
X84517379Y-58073596D01*
X84652086Y-58023354D01*
X84652093Y-58023350D01*
X84767187Y-57937190D01*
X84767190Y-57937187D01*
X84853350Y-57822093D01*
X84853354Y-57822086D01*
X84903596Y-57687379D01*
X84903598Y-57687372D01*
X84909999Y-57627844D01*
X84910000Y-57627827D01*
X84910000Y-55669994D01*
X92335057Y-55669994D01*
X92335057Y-55670005D01*
X92354807Y-55983942D01*
X92354808Y-55983949D01*
X92413755Y-56292958D01*
X92510963Y-56592132D01*
X92510965Y-56592137D01*
X92644900Y-56876761D01*
X92644903Y-56876767D01*
X92813457Y-57142367D01*
X92813460Y-57142371D01*
X92904286Y-57252160D01*
X93724728Y-56431717D01*
X93810278Y-56549466D01*
X93960534Y-56699722D01*
X94078281Y-56785270D01*
X93254971Y-57608579D01*
X93254972Y-57608581D01*
X93497772Y-57784985D01*
X93497790Y-57784996D01*
X93773447Y-57936540D01*
X93773455Y-57936544D01*
X94065926Y-58052340D01*
X94370620Y-58130573D01*
X94370629Y-58130575D01*
X94682701Y-58169999D01*
X94682715Y-58170000D01*
X94997285Y-58170000D01*
X94997298Y-58169999D01*
X95309370Y-58130575D01*
X95309379Y-58130573D01*
X95614073Y-58052340D01*
X95906544Y-57936544D01*
X95906552Y-57936540D01*
X96182209Y-57784996D01*
X96182219Y-57784990D01*
X96425026Y-57608579D01*
X96425027Y-57608579D01*
X95601718Y-56785270D01*
X95719466Y-56699722D01*
X95869722Y-56549466D01*
X95955270Y-56431718D01*
X96775712Y-57252160D01*
X96866544Y-57142364D01*
X97035096Y-56876767D01*
X97035099Y-56876761D01*
X97169034Y-56592137D01*
X97169036Y-56592132D01*
X97266244Y-56292958D01*
X97325191Y-55983949D01*
X97325192Y-55983942D01*
X97344943Y-55670005D01*
X97344943Y-55669994D01*
X97338022Y-55559994D01*
X105595057Y-55559994D01*
X105595057Y-55560005D01*
X105614807Y-55873942D01*
X105614808Y-55873949D01*
X105673755Y-56182958D01*
X105770963Y-56482132D01*
X105770965Y-56482137D01*
X105904900Y-56766761D01*
X105904903Y-56766767D01*
X106073457Y-57032367D01*
X106073460Y-57032371D01*
X106164286Y-57142160D01*
X106984728Y-56321717D01*
X107070278Y-56439466D01*
X107220534Y-56589722D01*
X107338281Y-56675270D01*
X106514971Y-57498579D01*
X106514972Y-57498581D01*
X106757772Y-57674985D01*
X106757790Y-57674996D01*
X107033447Y-57826540D01*
X107033455Y-57826544D01*
X107325926Y-57942340D01*
X107630620Y-58020573D01*
X107630629Y-58020575D01*
X107942701Y-58059999D01*
X107942715Y-58060000D01*
X108257285Y-58060000D01*
X108257298Y-58059999D01*
X108569370Y-58020575D01*
X108569379Y-58020573D01*
X108874073Y-57942340D01*
X109166544Y-57826544D01*
X109166552Y-57826540D01*
X109442209Y-57674996D01*
X109442219Y-57674990D01*
X109685026Y-57498579D01*
X109685027Y-57498579D01*
X108861718Y-56675270D01*
X108979466Y-56589722D01*
X109129722Y-56439466D01*
X109215270Y-56321718D01*
X110035712Y-57142160D01*
X110126544Y-57032364D01*
X110295096Y-56766767D01*
X110295099Y-56766761D01*
X110429034Y-56482137D01*
X110429036Y-56482132D01*
X110526244Y-56182958D01*
X110585191Y-55873949D01*
X110585192Y-55873942D01*
X110604943Y-55560005D01*
X110604943Y-55559994D01*
X110585192Y-55246057D01*
X110585191Y-55246050D01*
X110526244Y-54937041D01*
X110429036Y-54637867D01*
X110429034Y-54637862D01*
X110295099Y-54353238D01*
X110295096Y-54353232D01*
X110126542Y-54087632D01*
X110126539Y-54087628D01*
X110035712Y-53977838D01*
X109215269Y-54798281D01*
X109129722Y-54680534D01*
X108979466Y-54530278D01*
X108861717Y-54444729D01*
X109685027Y-53621419D01*
X109685026Y-53621417D01*
X109442227Y-53445014D01*
X109442209Y-53445003D01*
X109166552Y-53293459D01*
X109166544Y-53293455D01*
X108885429Y-53182155D01*
X116610000Y-53182155D01*
X116610000Y-57277844D01*
X116616401Y-57337372D01*
X116616403Y-57337379D01*
X116666645Y-57472086D01*
X116666649Y-57472093D01*
X116752809Y-57587187D01*
X116752812Y-57587190D01*
X116867906Y-57673350D01*
X116867913Y-57673354D01*
X117002620Y-57723596D01*
X117002627Y-57723598D01*
X117062155Y-57729999D01*
X117062172Y-57730000D01*
X118256447Y-57730000D01*
X118256447Y-57729999D01*
X118963552Y-57729999D01*
X118963553Y-57730000D01*
X123256447Y-57730000D01*
X123256447Y-57729999D01*
X121110000Y-55583553D01*
X118963552Y-57729999D01*
X118256447Y-57729999D01*
X120756447Y-55230000D01*
X118256447Y-52730000D01*
X118963552Y-52730000D01*
X121110000Y-54876447D01*
X123256447Y-52730000D01*
X118963552Y-52730000D01*
X118256447Y-52730000D01*
X117062155Y-52730000D01*
X117002627Y-52736401D01*
X117002620Y-52736403D01*
X116867913Y-52786645D01*
X116867906Y-52786649D01*
X116752812Y-52872809D01*
X116752809Y-52872812D01*
X116666649Y-52987906D01*
X116666645Y-52987913D01*
X116616403Y-53122620D01*
X116616401Y-53122627D01*
X116610000Y-53182155D01*
X108885429Y-53182155D01*
X108874073Y-53177659D01*
X108569379Y-53099426D01*
X108569370Y-53099424D01*
X108257298Y-53060000D01*
X107942701Y-53060000D01*
X107630629Y-53099424D01*
X107630620Y-53099426D01*
X107325926Y-53177659D01*
X107033455Y-53293455D01*
X107033447Y-53293459D01*
X106757787Y-53445004D01*
X106757782Y-53445007D01*
X106514972Y-53621418D01*
X106514971Y-53621419D01*
X107338281Y-54444729D01*
X107220534Y-54530278D01*
X107070278Y-54680534D01*
X106984729Y-54798281D01*
X106164286Y-53977838D01*
X106164285Y-53977838D01*
X106073459Y-54087629D01*
X106073457Y-54087632D01*
X105904903Y-54353232D01*
X105904900Y-54353238D01*
X105770965Y-54637862D01*
X105770963Y-54637867D01*
X105673755Y-54937041D01*
X105614808Y-55246050D01*
X105614807Y-55246057D01*
X105595057Y-55559994D01*
X97338022Y-55559994D01*
X97325192Y-55356057D01*
X97325191Y-55356050D01*
X97266244Y-55047041D01*
X97169036Y-54747867D01*
X97169034Y-54747862D01*
X97035099Y-54463238D01*
X97035096Y-54463232D01*
X96866542Y-54197632D01*
X96866539Y-54197628D01*
X96775712Y-54087838D01*
X95955269Y-54908281D01*
X95869722Y-54790534D01*
X95719466Y-54640278D01*
X95601717Y-54554729D01*
X96425027Y-53731419D01*
X96425026Y-53731417D01*
X96182227Y-53555014D01*
X96182209Y-53555003D01*
X95906552Y-53403459D01*
X95906544Y-53403455D01*
X95614073Y-53287659D01*
X95309379Y-53209426D01*
X95309370Y-53209424D01*
X94997298Y-53170000D01*
X94682701Y-53170000D01*
X94370629Y-53209424D01*
X94370620Y-53209426D01*
X94065926Y-53287659D01*
X93773455Y-53403455D01*
X93773447Y-53403459D01*
X93497787Y-53555004D01*
X93497782Y-53555007D01*
X93254972Y-53731418D01*
X93254971Y-53731419D01*
X94078281Y-54554729D01*
X93960534Y-54640278D01*
X93810278Y-54790534D01*
X93724729Y-54908281D01*
X92904286Y-54087838D01*
X92904285Y-54087838D01*
X92813459Y-54197629D01*
X92813457Y-54197632D01*
X92644903Y-54463232D01*
X92644900Y-54463238D01*
X92510965Y-54747862D01*
X92510963Y-54747867D01*
X92413755Y-55047041D01*
X92354808Y-55356050D01*
X92354807Y-55356057D01*
X92335057Y-55669994D01*
X84910000Y-55669994D01*
X84910000Y-53532172D01*
X84909999Y-53532155D01*
X84903598Y-53472627D01*
X84903596Y-53472620D01*
X84853354Y-53337913D01*
X84853350Y-53337906D01*
X84767190Y-53222812D01*
X84767187Y-53222809D01*
X84652093Y-53136649D01*
X84652086Y-53136645D01*
X84517379Y-53086403D01*
X84517372Y-53086401D01*
X84457844Y-53080000D01*
X83263552Y-53080000D01*
X80763553Y-55580000D01*
X80056447Y-55580000D01*
X77556447Y-53080000D01*
X78263552Y-53080000D01*
X80410000Y-55226447D01*
X82556447Y-53080000D01*
X78263552Y-53080000D01*
X77556447Y-53080000D01*
X76435116Y-53080000D01*
X76368077Y-53060315D01*
X76322322Y-53007511D01*
X76311432Y-52947155D01*
X76315130Y-52895444D01*
X76317646Y-52877938D01*
X76359356Y-52686199D01*
X76364333Y-52669248D01*
X76432911Y-52485385D01*
X76440259Y-52469298D01*
X76534294Y-52297083D01*
X76543847Y-52282218D01*
X76566708Y-52251680D01*
X76622638Y-52209811D01*
X76664916Y-52201996D01*
X124499631Y-51795756D01*
X124560103Y-51810917D01*
G37*
%TD.AperFunction*%
%TD*%
%TA.AperFunction,Conductor*%
%TO.N,+5V*%
G36*
X123873039Y-73699685D02*
G01*
X123918794Y-73752489D01*
X123930000Y-73804000D01*
X123930000Y-89556000D01*
X123910315Y-89623039D01*
X123857511Y-89668794D01*
X123806000Y-89680000D01*
X76603613Y-89680000D01*
X76536574Y-89660315D01*
X76490819Y-89607511D01*
X76479614Y-89556387D01*
X76466708Y-85426530D01*
X86154500Y-85426530D01*
X86154500Y-85633469D01*
X86194868Y-85836412D01*
X86194870Y-85836420D01*
X86274058Y-86027596D01*
X86389024Y-86199657D01*
X86535342Y-86345975D01*
X86535345Y-86345977D01*
X86707402Y-86460941D01*
X86898580Y-86540130D01*
X87099011Y-86579998D01*
X87101530Y-86580499D01*
X87101534Y-86580500D01*
X87101535Y-86580500D01*
X87558466Y-86580500D01*
X87558467Y-86580499D01*
X87761420Y-86540130D01*
X87952598Y-86460941D01*
X88124655Y-86345977D01*
X88270977Y-86199655D01*
X88385941Y-86027598D01*
X88465130Y-85836420D01*
X88505500Y-85633465D01*
X88505500Y-85426535D01*
X88496557Y-85381577D01*
X94229500Y-85381577D01*
X94229500Y-85578422D01*
X94260290Y-85772826D01*
X94321117Y-85960029D01*
X94410476Y-86135405D01*
X94526172Y-86294646D01*
X94665354Y-86433828D01*
X94824595Y-86549524D01*
X94885389Y-86580500D01*
X94999970Y-86638882D01*
X94999972Y-86638882D01*
X94999975Y-86638884D01*
X95100317Y-86671487D01*
X95187173Y-86699709D01*
X95381578Y-86730500D01*
X95381583Y-86730500D01*
X96378422Y-86730500D01*
X96572826Y-86699709D01*
X96760025Y-86638884D01*
X96935405Y-86549524D01*
X97094646Y-86433828D01*
X97233828Y-86294646D01*
X97349524Y-86135405D01*
X97438884Y-85960025D01*
X97499709Y-85772826D01*
X97530500Y-85578422D01*
X97530500Y-85381577D01*
X103779500Y-85381577D01*
X103779500Y-85578422D01*
X103810290Y-85772826D01*
X103871117Y-85960029D01*
X103960476Y-86135405D01*
X104076172Y-86294646D01*
X104215354Y-86433828D01*
X104374595Y-86549524D01*
X104435389Y-86580500D01*
X104549970Y-86638882D01*
X104549972Y-86638882D01*
X104549975Y-86638884D01*
X104650317Y-86671487D01*
X104737173Y-86699709D01*
X104931578Y-86730500D01*
X104931583Y-86730500D01*
X105928422Y-86730500D01*
X106122826Y-86699709D01*
X106310025Y-86638884D01*
X106485405Y-86549524D01*
X106644646Y-86433828D01*
X106783828Y-86294646D01*
X106899524Y-86135405D01*
X106988884Y-85960025D01*
X107049709Y-85772826D01*
X107080500Y-85578422D01*
X107080500Y-85381577D01*
X107049709Y-85187173D01*
X107004052Y-85046657D01*
X106988884Y-84999975D01*
X106988882Y-84999972D01*
X106988882Y-84999970D01*
X106899523Y-84824594D01*
X106872478Y-84787370D01*
X106783828Y-84665354D01*
X106644646Y-84526172D01*
X106485405Y-84410476D01*
X106310029Y-84321117D01*
X106122826Y-84260290D01*
X105928422Y-84229500D01*
X105928417Y-84229500D01*
X104931583Y-84229500D01*
X104931578Y-84229500D01*
X104737173Y-84260290D01*
X104549970Y-84321117D01*
X104374594Y-84410476D01*
X104283741Y-84476485D01*
X104215354Y-84526172D01*
X104215352Y-84526174D01*
X104215351Y-84526174D01*
X104076174Y-84665351D01*
X104076174Y-84665352D01*
X104076172Y-84665354D01*
X104040812Y-84714023D01*
X103960476Y-84824594D01*
X103871117Y-84999970D01*
X103810290Y-85187173D01*
X103779500Y-85381577D01*
X97530500Y-85381577D01*
X97499709Y-85187173D01*
X97454052Y-85046657D01*
X97438884Y-84999975D01*
X97438882Y-84999972D01*
X97438882Y-84999970D01*
X97349523Y-84824594D01*
X97322478Y-84787370D01*
X97233828Y-84665354D01*
X97094646Y-84526172D01*
X96935405Y-84410476D01*
X96760029Y-84321117D01*
X96572826Y-84260290D01*
X96378422Y-84229500D01*
X96378417Y-84229500D01*
X95381583Y-84229500D01*
X95381578Y-84229500D01*
X95187173Y-84260290D01*
X94999970Y-84321117D01*
X94824594Y-84410476D01*
X94733741Y-84476485D01*
X94665354Y-84526172D01*
X94665352Y-84526174D01*
X94665351Y-84526174D01*
X94526174Y-84665351D01*
X94526174Y-84665352D01*
X94526172Y-84665354D01*
X94490812Y-84714023D01*
X94410476Y-84824594D01*
X94321117Y-84999970D01*
X94260290Y-85187173D01*
X94229500Y-85381577D01*
X88496557Y-85381577D01*
X88465130Y-85223580D01*
X88385941Y-85032402D01*
X88270977Y-84860345D01*
X88270975Y-84860342D01*
X88124657Y-84714024D01*
X88038626Y-84656541D01*
X87952598Y-84599059D01*
X87906653Y-84580028D01*
X87761420Y-84519870D01*
X87761412Y-84519868D01*
X87558469Y-84479500D01*
X87558465Y-84479500D01*
X87101535Y-84479500D01*
X87101530Y-84479500D01*
X86898587Y-84519868D01*
X86898579Y-84519870D01*
X86707403Y-84599058D01*
X86535342Y-84714024D01*
X86389024Y-84860342D01*
X86274058Y-85032403D01*
X86194870Y-85223579D01*
X86194868Y-85223587D01*
X86154500Y-85426530D01*
X76466708Y-85426530D01*
X76453755Y-81281577D01*
X79579500Y-81281577D01*
X79579500Y-82278422D01*
X79610290Y-82472826D01*
X79671117Y-82660029D01*
X79703502Y-82723587D01*
X79760476Y-82835405D01*
X79876172Y-82994646D01*
X80015354Y-83133828D01*
X80174595Y-83249524D01*
X80257455Y-83291743D01*
X80349970Y-83338882D01*
X80349972Y-83338882D01*
X80349975Y-83338884D01*
X80450317Y-83371487D01*
X80537173Y-83399709D01*
X80731578Y-83430500D01*
X80731583Y-83430500D01*
X80928422Y-83430500D01*
X81122826Y-83399709D01*
X81122992Y-83399655D01*
X81310025Y-83338884D01*
X81485405Y-83249524D01*
X81644646Y-83133828D01*
X81783828Y-82994646D01*
X81833317Y-82926530D01*
X86154500Y-82926530D01*
X86154500Y-83133469D01*
X86177585Y-83249523D01*
X86194870Y-83336420D01*
X86274059Y-83527598D01*
X86331541Y-83613626D01*
X86389024Y-83699657D01*
X86535342Y-83845975D01*
X86535345Y-83845977D01*
X86707402Y-83960941D01*
X86898580Y-84040130D01*
X87101530Y-84080499D01*
X87101534Y-84080500D01*
X87101535Y-84080500D01*
X87558466Y-84080500D01*
X87558467Y-84080499D01*
X87761420Y-84040130D01*
X87952598Y-83960941D01*
X88124655Y-83845977D01*
X88270977Y-83699655D01*
X88385941Y-83527598D01*
X88465130Y-83336420D01*
X88505500Y-83133465D01*
X88505500Y-82926535D01*
X88465130Y-82723580D01*
X88385941Y-82532402D01*
X88270977Y-82360345D01*
X88270975Y-82360342D01*
X88124657Y-82214024D01*
X88016589Y-82141816D01*
X87952598Y-82099059D01*
X87859127Y-82060342D01*
X87761420Y-82019870D01*
X87761412Y-82019868D01*
X87558469Y-81979500D01*
X87558465Y-81979500D01*
X87101535Y-81979500D01*
X87101530Y-81979500D01*
X86898587Y-82019868D01*
X86898579Y-82019870D01*
X86707403Y-82099058D01*
X86535342Y-82214024D01*
X86389024Y-82360342D01*
X86274058Y-82532403D01*
X86194870Y-82723579D01*
X86194868Y-82723587D01*
X86154500Y-82926530D01*
X81833317Y-82926530D01*
X81899524Y-82835405D01*
X81988884Y-82660025D01*
X82049709Y-82472826D01*
X82067525Y-82360342D01*
X82080500Y-82278422D01*
X82080500Y-81281577D01*
X82049709Y-81087173D01*
X82015398Y-80981577D01*
X81988884Y-80899975D01*
X81988882Y-80899972D01*
X81988882Y-80899970D01*
X81899523Y-80724594D01*
X81783828Y-80565354D01*
X81644646Y-80426172D01*
X81485405Y-80310476D01*
X81310029Y-80221117D01*
X81122826Y-80160290D01*
X80928422Y-80129500D01*
X80928417Y-80129500D01*
X80731583Y-80129500D01*
X80731578Y-80129500D01*
X80537173Y-80160290D01*
X80349970Y-80221117D01*
X80174594Y-80310476D01*
X80083741Y-80376485D01*
X80015354Y-80426172D01*
X80015352Y-80426174D01*
X80015351Y-80426174D01*
X79876174Y-80565351D01*
X79876174Y-80565352D01*
X79876172Y-80565354D01*
X79826686Y-80633465D01*
X79760476Y-80724594D01*
X79671117Y-80899970D01*
X79610290Y-81087173D01*
X79579500Y-81281577D01*
X76453755Y-81281577D01*
X76441563Y-77380013D01*
X85855000Y-77380013D01*
X85855000Y-77780000D01*
X86925854Y-77780000D01*
X86887370Y-77846657D01*
X86855000Y-77967465D01*
X86855000Y-78092535D01*
X86887370Y-78213343D01*
X86925854Y-78280000D01*
X85855001Y-78280000D01*
X85855001Y-78679986D01*
X85865494Y-78782697D01*
X85920641Y-78949119D01*
X85920643Y-78949124D01*
X86012684Y-79098345D01*
X86136654Y-79222315D01*
X86285875Y-79314356D01*
X86285880Y-79314358D01*
X86452302Y-79369505D01*
X86452309Y-79369506D01*
X86555019Y-79379999D01*
X86626471Y-79379999D01*
X86693511Y-79399683D01*
X86739267Y-79452486D01*
X86749211Y-79521644D01*
X86720187Y-79585200D01*
X86695364Y-79607101D01*
X86535345Y-79714022D01*
X86535341Y-79714025D01*
X86389024Y-79860342D01*
X86274058Y-80032403D01*
X86194870Y-80223579D01*
X86194868Y-80223587D01*
X86154500Y-80426530D01*
X86154500Y-80633469D01*
X86194868Y-80836412D01*
X86194870Y-80836420D01*
X86221195Y-80899975D01*
X86274059Y-81027598D01*
X86313866Y-81087174D01*
X86389024Y-81199657D01*
X86535342Y-81345975D01*
X86535345Y-81345977D01*
X86707402Y-81460941D01*
X86898580Y-81540130D01*
X87101530Y-81580499D01*
X87101534Y-81580500D01*
X87101535Y-81580500D01*
X87558466Y-81580500D01*
X87558467Y-81580499D01*
X87761420Y-81540130D01*
X87952598Y-81460941D01*
X88124655Y-81345977D01*
X88270977Y-81199655D01*
X88385941Y-81027598D01*
X88435875Y-80907046D01*
X88479716Y-80852644D01*
X88546010Y-80830579D01*
X88550436Y-80830500D01*
X93040438Y-80830500D01*
X93119562Y-80830500D01*
X102590438Y-80830500D01*
X102669562Y-80830500D01*
X112254167Y-80830500D01*
X112321206Y-80850185D01*
X112341848Y-80866819D01*
X113555522Y-82080493D01*
X113589007Y-82141816D01*
X113584023Y-82211508D01*
X113576264Y-82226676D01*
X113576929Y-82227032D01*
X113574059Y-82232400D01*
X113494870Y-82423579D01*
X113494868Y-82423587D01*
X113454500Y-82626530D01*
X113454500Y-82833469D01*
X113486561Y-82994648D01*
X113494870Y-83036420D01*
X113574059Y-83227598D01*
X113631541Y-83313626D01*
X113689024Y-83399657D01*
X113835342Y-83545975D01*
X113835345Y-83545977D01*
X113995367Y-83652899D01*
X114040170Y-83706509D01*
X114048878Y-83775834D01*
X114018724Y-83838862D01*
X113959282Y-83875581D01*
X113926477Y-83880000D01*
X113855029Y-83880000D01*
X113855012Y-83880001D01*
X113752302Y-83890494D01*
X113585880Y-83945641D01*
X113585875Y-83945643D01*
X113436654Y-84037684D01*
X113312684Y-84161654D01*
X113220643Y-84310875D01*
X113220641Y-84310880D01*
X113165494Y-84477302D01*
X113165493Y-84477309D01*
X113155000Y-84580013D01*
X113155000Y-84980000D01*
X114225854Y-84980000D01*
X114187370Y-85046657D01*
X114155000Y-85167465D01*
X114155000Y-85292535D01*
X114187370Y-85413343D01*
X114225854Y-85480000D01*
X113155001Y-85480000D01*
X113155001Y-85879986D01*
X113165494Y-85982697D01*
X113220641Y-86149119D01*
X113220643Y-86149124D01*
X113312684Y-86298345D01*
X113436654Y-86422315D01*
X113585875Y-86514356D01*
X113585880Y-86514358D01*
X113752302Y-86569505D01*
X113752309Y-86569506D01*
X113855019Y-86579999D01*
X114379999Y-86579999D01*
X114380000Y-86579998D01*
X114380000Y-85634145D01*
X114446657Y-85672630D01*
X114567465Y-85705000D01*
X114692535Y-85705000D01*
X114813343Y-85672630D01*
X114880000Y-85634145D01*
X114880000Y-86579999D01*
X115404972Y-86579999D01*
X115404986Y-86579998D01*
X115507697Y-86569505D01*
X115674119Y-86514358D01*
X115674124Y-86514356D01*
X115823345Y-86422315D01*
X115947315Y-86298345D01*
X116039356Y-86149124D01*
X116039358Y-86149119D01*
X116094505Y-85982697D01*
X116094506Y-85982690D01*
X116104999Y-85879986D01*
X116105000Y-85879973D01*
X116105000Y-85480000D01*
X115034146Y-85480000D01*
X115072630Y-85413343D01*
X115105000Y-85292535D01*
X115105000Y-85167465D01*
X115072630Y-85046657D01*
X115034146Y-84980000D01*
X116104999Y-84980000D01*
X116104999Y-84580028D01*
X116104998Y-84580013D01*
X116094505Y-84477302D01*
X116039358Y-84310880D01*
X116039356Y-84310875D01*
X115947315Y-84161654D01*
X115823345Y-84037684D01*
X115674124Y-83945643D01*
X115674119Y-83945641D01*
X115507697Y-83890494D01*
X115507690Y-83890493D01*
X115404986Y-83880000D01*
X115333526Y-83880000D01*
X115266487Y-83860315D01*
X115220732Y-83807511D01*
X115210788Y-83738353D01*
X115239813Y-83674797D01*
X115264633Y-83652899D01*
X115424655Y-83545977D01*
X115570977Y-83399655D01*
X115685941Y-83227598D01*
X115765130Y-83036420D01*
X115805500Y-82833465D01*
X115805500Y-82626535D01*
X115765130Y-82423580D01*
X115685941Y-82232402D01*
X115570977Y-82060345D01*
X115570975Y-82060342D01*
X115424657Y-81914024D01*
X115338626Y-81856541D01*
X115252598Y-81799059D01*
X115061420Y-81719870D01*
X115061412Y-81719868D01*
X114858469Y-81679500D01*
X114858465Y-81679500D01*
X114401535Y-81679500D01*
X114401530Y-81679500D01*
X114198587Y-81719868D01*
X114198580Y-81719870D01*
X114166415Y-81733193D01*
X114096946Y-81740661D01*
X114034467Y-81709385D01*
X114031283Y-81706312D01*
X112614512Y-80289541D01*
X112614504Y-80289535D01*
X112572619Y-80265353D01*
X112572615Y-80265352D01*
X112563324Y-80259987D01*
X112545990Y-80249979D01*
X112545991Y-80249979D01*
X112507775Y-80239739D01*
X112469562Y-80229500D01*
X112469560Y-80229500D01*
X107296690Y-80229500D01*
X107229651Y-80209815D01*
X107183896Y-80157011D01*
X107179513Y-80126530D01*
X113454500Y-80126530D01*
X113454500Y-80333469D01*
X113494868Y-80536412D01*
X113494870Y-80536420D01*
X113521195Y-80599975D01*
X113574059Y-80727598D01*
X113613866Y-80787174D01*
X113689024Y-80899657D01*
X113835342Y-81045975D01*
X113835345Y-81045977D01*
X114007402Y-81160941D01*
X114198580Y-81240130D01*
X114401530Y-81280499D01*
X114401534Y-81280500D01*
X114401535Y-81280500D01*
X114858466Y-81280500D01*
X114858467Y-81280499D01*
X115061420Y-81240130D01*
X115252598Y-81160941D01*
X115424655Y-81045977D01*
X115489055Y-80981577D01*
X119879500Y-80981577D01*
X119879500Y-81978422D01*
X119910290Y-82172826D01*
X119971117Y-82360029D01*
X120058946Y-82532402D01*
X120060476Y-82535405D01*
X120176172Y-82694646D01*
X120315354Y-82833828D01*
X120474595Y-82949524D01*
X120557455Y-82991743D01*
X120649970Y-83038882D01*
X120649972Y-83038882D01*
X120649975Y-83038884D01*
X120750317Y-83071487D01*
X120837173Y-83099709D01*
X121031578Y-83130500D01*
X121031583Y-83130500D01*
X121228422Y-83130500D01*
X121422826Y-83099709D01*
X121610025Y-83038884D01*
X121785405Y-82949524D01*
X121944646Y-82833828D01*
X122083828Y-82694646D01*
X122199524Y-82535405D01*
X122288721Y-82360345D01*
X122288882Y-82360029D01*
X122288882Y-82360028D01*
X122288884Y-82360025D01*
X122349709Y-82172826D01*
X122352936Y-82152451D01*
X122380500Y-81978422D01*
X122380500Y-80981577D01*
X122349709Y-80787173D01*
X122299767Y-80633469D01*
X122288884Y-80599975D01*
X122288882Y-80599972D01*
X122288882Y-80599970D01*
X122200512Y-80426535D01*
X122199524Y-80424595D01*
X122083828Y-80265354D01*
X121944646Y-80126172D01*
X121785405Y-80010476D01*
X121769549Y-80002397D01*
X121610029Y-79921117D01*
X121422826Y-79860290D01*
X121228422Y-79829500D01*
X121228417Y-79829500D01*
X121031583Y-79829500D01*
X121031578Y-79829500D01*
X120837173Y-79860290D01*
X120649970Y-79921117D01*
X120474594Y-80010476D01*
X120383741Y-80076485D01*
X120315354Y-80126172D01*
X120315352Y-80126174D01*
X120315351Y-80126174D01*
X120176174Y-80265351D01*
X120176174Y-80265352D01*
X120176172Y-80265354D01*
X120158600Y-80289540D01*
X120060476Y-80424594D01*
X119971117Y-80599970D01*
X119910290Y-80787173D01*
X119879500Y-80981577D01*
X115489055Y-80981577D01*
X115570977Y-80899655D01*
X115685941Y-80727598D01*
X115765130Y-80536420D01*
X115805500Y-80333465D01*
X115805500Y-80126535D01*
X115765130Y-79923580D01*
X115685941Y-79732402D01*
X115570977Y-79560345D01*
X115570975Y-79560342D01*
X115424657Y-79414024D01*
X115338626Y-79356541D01*
X115252598Y-79299059D01*
X115061420Y-79219870D01*
X115061412Y-79219868D01*
X114858469Y-79179500D01*
X114858465Y-79179500D01*
X114401535Y-79179500D01*
X114401530Y-79179500D01*
X114198587Y-79219868D01*
X114198579Y-79219870D01*
X114007403Y-79299058D01*
X113835342Y-79414024D01*
X113689024Y-79560342D01*
X113574058Y-79732403D01*
X113494870Y-79923579D01*
X113494868Y-79923587D01*
X113454500Y-80126530D01*
X107179513Y-80126530D01*
X107173952Y-80087853D01*
X107202977Y-80024297D01*
X107227800Y-80002397D01*
X107349655Y-79920977D01*
X107495977Y-79774655D01*
X107610941Y-79602598D01*
X107690130Y-79411420D01*
X107730500Y-79208465D01*
X107730500Y-78751535D01*
X107690130Y-78548580D01*
X107610941Y-78357402D01*
X107495977Y-78185345D01*
X107495975Y-78185342D01*
X107349657Y-78039024D01*
X107242560Y-77967465D01*
X107177598Y-77924059D01*
X106986420Y-77844870D01*
X106986412Y-77844868D01*
X106783469Y-77804500D01*
X106783465Y-77804500D01*
X106576535Y-77804500D01*
X106576530Y-77804500D01*
X106373587Y-77844868D01*
X106373579Y-77844870D01*
X106182403Y-77924058D01*
X106010342Y-78039024D01*
X105864024Y-78185342D01*
X105749058Y-78357403D01*
X105669870Y-78548579D01*
X105669868Y-78548587D01*
X105629500Y-78751530D01*
X105629500Y-79208469D01*
X105669868Y-79411412D01*
X105669870Y-79411420D01*
X105715526Y-79521644D01*
X105749059Y-79602598D01*
X105775285Y-79641848D01*
X105864024Y-79774657D01*
X106010342Y-79920975D01*
X106132200Y-80002397D01*
X106177006Y-80056009D01*
X106185713Y-80125334D01*
X106155559Y-80188362D01*
X106096116Y-80225082D01*
X106063310Y-80229500D01*
X105198439Y-80229500D01*
X105131400Y-80209815D01*
X105085645Y-80157011D01*
X105075701Y-80087853D01*
X105098669Y-80031866D01*
X105102150Y-80027150D01*
X105182793Y-79917882D01*
X105213719Y-79829500D01*
X105227646Y-79789701D01*
X105227646Y-79789699D01*
X105230500Y-79759269D01*
X105230500Y-78200730D01*
X105227646Y-78170300D01*
X105227646Y-78170298D01*
X105182793Y-78042119D01*
X105182792Y-78042117D01*
X105102150Y-77932850D01*
X104992882Y-77852207D01*
X104992880Y-77852206D01*
X104864700Y-77807353D01*
X104834270Y-77804500D01*
X104834266Y-77804500D01*
X103525734Y-77804500D01*
X103525730Y-77804500D01*
X103495300Y-77807353D01*
X103495298Y-77807353D01*
X103367119Y-77852206D01*
X103367117Y-77852207D01*
X103257850Y-77932850D01*
X103177207Y-78042117D01*
X103177206Y-78042119D01*
X103132353Y-78170298D01*
X103132353Y-78170300D01*
X103129500Y-78200730D01*
X103129500Y-79554167D01*
X103109815Y-79621206D01*
X103093181Y-79641848D01*
X102541848Y-80193181D01*
X102480525Y-80226666D01*
X102454167Y-80229500D01*
X97746690Y-80229500D01*
X97679651Y-80209815D01*
X97633896Y-80157011D01*
X97623952Y-80087853D01*
X97652977Y-80024297D01*
X97677800Y-80002397D01*
X97799655Y-79920977D01*
X97945977Y-79774655D01*
X98060941Y-79602598D01*
X98140130Y-79411420D01*
X98180500Y-79208465D01*
X98180500Y-78751535D01*
X98140130Y-78548580D01*
X98060941Y-78357402D01*
X97945977Y-78185345D01*
X97945975Y-78185342D01*
X97799657Y-78039024D01*
X97692560Y-77967465D01*
X97627598Y-77924059D01*
X97436420Y-77844870D01*
X97436412Y-77844868D01*
X97233469Y-77804500D01*
X97233465Y-77804500D01*
X97026535Y-77804500D01*
X97026530Y-77804500D01*
X96823587Y-77844868D01*
X96823579Y-77844870D01*
X96632403Y-77924058D01*
X96460342Y-78039024D01*
X96314024Y-78185342D01*
X96199058Y-78357403D01*
X96119870Y-78548579D01*
X96119868Y-78548587D01*
X96079500Y-78751530D01*
X96079500Y-79208469D01*
X96119868Y-79411412D01*
X96119870Y-79411420D01*
X96165526Y-79521644D01*
X96199059Y-79602598D01*
X96225285Y-79641848D01*
X96314024Y-79774657D01*
X96460342Y-79920975D01*
X96582200Y-80002397D01*
X96627006Y-80056009D01*
X96635713Y-80125334D01*
X96605559Y-80188362D01*
X96546116Y-80225082D01*
X96513310Y-80229500D01*
X95648439Y-80229500D01*
X95581400Y-80209815D01*
X95535645Y-80157011D01*
X95525701Y-80087853D01*
X95548669Y-80031866D01*
X95552150Y-80027150D01*
X95632793Y-79917882D01*
X95663719Y-79829500D01*
X95677646Y-79789701D01*
X95677646Y-79789699D01*
X95680500Y-79759269D01*
X95680500Y-78200730D01*
X95677646Y-78170300D01*
X95677646Y-78170298D01*
X95632793Y-78042119D01*
X95632792Y-78042117D01*
X95552150Y-77932850D01*
X95442882Y-77852207D01*
X95442880Y-77852206D01*
X95314700Y-77807353D01*
X95284270Y-77804500D01*
X95284266Y-77804500D01*
X93975734Y-77804500D01*
X93975730Y-77804500D01*
X93945300Y-77807353D01*
X93945298Y-77807353D01*
X93817119Y-77852206D01*
X93817117Y-77852207D01*
X93707850Y-77932850D01*
X93627207Y-78042117D01*
X93627206Y-78042119D01*
X93582353Y-78170298D01*
X93582353Y-78170300D01*
X93579500Y-78200730D01*
X93579500Y-79554167D01*
X93559815Y-79621206D01*
X93543181Y-79641848D01*
X92991848Y-80193181D01*
X92930525Y-80226666D01*
X92904167Y-80229500D01*
X88550436Y-80229500D01*
X88483397Y-80209815D01*
X88437642Y-80157011D01*
X88435875Y-80152953D01*
X88428986Y-80136321D01*
X88385941Y-80032402D01*
X88270977Y-79860345D01*
X88270975Y-79860342D01*
X88124657Y-79714024D01*
X88079618Y-79683930D01*
X87964632Y-79607100D01*
X87919829Y-79553490D01*
X87911121Y-79484165D01*
X87941275Y-79421137D01*
X88000718Y-79384417D01*
X88033524Y-79379999D01*
X88104971Y-79379999D01*
X88104987Y-79379998D01*
X88207697Y-79369505D01*
X88374119Y-79314358D01*
X88374124Y-79314356D01*
X88523345Y-79222315D01*
X88647315Y-79098345D01*
X88739356Y-78949124D01*
X88739358Y-78949119D01*
X88794505Y-78782697D01*
X88794506Y-78782690D01*
X88804999Y-78679986D01*
X88805000Y-78679973D01*
X88805000Y-78280000D01*
X87734146Y-78280000D01*
X87772630Y-78213343D01*
X87805000Y-78092535D01*
X87805000Y-77967465D01*
X87772630Y-77846657D01*
X87734146Y-77780000D01*
X88804999Y-77780000D01*
X88804999Y-77626530D01*
X113454500Y-77626530D01*
X113454500Y-77833469D01*
X113494868Y-78036412D01*
X113494870Y-78036420D01*
X113574058Y-78227596D01*
X113689024Y-78399657D01*
X113835342Y-78545975D01*
X113835345Y-78545977D01*
X114007402Y-78660941D01*
X114198580Y-78740130D01*
X114401530Y-78780499D01*
X114401534Y-78780500D01*
X114401535Y-78780500D01*
X114858466Y-78780500D01*
X114858467Y-78780499D01*
X115061420Y-78740130D01*
X115252598Y-78660941D01*
X115424655Y-78545977D01*
X115570977Y-78399655D01*
X115685941Y-78227598D01*
X115765130Y-78036420D01*
X115805500Y-77833465D01*
X115805500Y-77626535D01*
X115765130Y-77423580D01*
X115685941Y-77232402D01*
X115570977Y-77060345D01*
X115570975Y-77060342D01*
X115424657Y-76914024D01*
X115310405Y-76837684D01*
X115252598Y-76799059D01*
X115061420Y-76719870D01*
X115061412Y-76719868D01*
X114858469Y-76679500D01*
X114858465Y-76679500D01*
X114401535Y-76679500D01*
X114401530Y-76679500D01*
X114198587Y-76719868D01*
X114198579Y-76719870D01*
X114007403Y-76799058D01*
X113835342Y-76914024D01*
X113689024Y-77060342D01*
X113574058Y-77232403D01*
X113494870Y-77423579D01*
X113494868Y-77423587D01*
X113454500Y-77626530D01*
X88804999Y-77626530D01*
X88804999Y-77380028D01*
X88804998Y-77380013D01*
X88794505Y-77277302D01*
X88739358Y-77110880D01*
X88739356Y-77110875D01*
X88647315Y-76961654D01*
X88523345Y-76837684D01*
X88374124Y-76745643D01*
X88374119Y-76745641D01*
X88207697Y-76690494D01*
X88207690Y-76690493D01*
X88104986Y-76680000D01*
X87580000Y-76680000D01*
X87580000Y-77625854D01*
X87513343Y-77587370D01*
X87392535Y-77555000D01*
X87267465Y-77555000D01*
X87146657Y-77587370D01*
X87080000Y-77625854D01*
X87080000Y-76680000D01*
X86555028Y-76680000D01*
X86555012Y-76680001D01*
X86452302Y-76690494D01*
X86285880Y-76745641D01*
X86285875Y-76745643D01*
X86136654Y-76837684D01*
X86012684Y-76961654D01*
X85920643Y-77110875D01*
X85920641Y-77110880D01*
X85865494Y-77277302D01*
X85865493Y-77277309D01*
X85855000Y-77380013D01*
X76441563Y-77380013D01*
X76430389Y-73804387D01*
X76449864Y-73737287D01*
X76502524Y-73691367D01*
X76554388Y-73680000D01*
X123806000Y-73680000D01*
X123873039Y-73699685D01*
G37*
%TD.AperFunction*%
%TD*%
M02*
