%TF.GenerationSoftware,KiCad,Pcbnew,8.0.2*%
%TF.CreationDate,2024-06-04T11:42:55+09:00*%
%TF.ProjectId,RoboMaster branch circuit substrate,526f626f-4d61-4737-9465-72206272616e,rev?*%
%TF.SameCoordinates,Original*%
%TF.FileFunction,Copper,L2,Bot*%
%TF.FilePolarity,Positive*%
%FSLAX46Y46*%
G04 Gerber Fmt 4.6, Leading zero omitted, Abs format (unit mm)*
G04 Created by KiCad (PCBNEW 8.0.2) date 2024-06-04 11:42:55*
%MOMM*%
%LPD*%
G01*
G04 APERTURE LIST*
G04 Aperture macros list*
%AMRoundRect*
0 Rectangle with rounded corners*
0 $1 Rounding radius*
0 $2 $3 $4 $5 $6 $7 $8 $9 X,Y pos of 4 corners*
0 Add a 4 corners polygon primitive as box body*
4,1,4,$2,$3,$4,$5,$6,$7,$8,$9,$2,$3,0*
0 Add four circle primitives for the rounded corners*
1,1,$1+$1,$2,$3*
1,1,$1+$1,$4,$5*
1,1,$1+$1,$6,$7*
1,1,$1+$1,$8,$9*
0 Add four rect primitives between the rounded corners*
20,1,$1+$1,$2,$3,$4,$5,0*
20,1,$1+$1,$4,$5,$6,$7,0*
20,1,$1+$1,$6,$7,$8,$9,0*
20,1,$1+$1,$8,$9,$2,$3,0*%
G04 Aperture macros list end*
%TA.AperFunction,ComponentPad*%
%ADD10RoundRect,0.250000X-0.725000X0.600000X-0.725000X-0.600000X0.725000X-0.600000X0.725000X0.600000X0*%
%TD*%
%TA.AperFunction,ComponentPad*%
%ADD11O,1.950000X1.700000*%
%TD*%
%TA.AperFunction,ComponentPad*%
%ADD12RoundRect,0.250000X-0.600000X-0.725000X0.600000X-0.725000X0.600000X0.725000X-0.600000X0.725000X0*%
%TD*%
%TA.AperFunction,ComponentPad*%
%ADD13O,1.700000X1.950000*%
%TD*%
%TA.AperFunction,ComponentPad*%
%ADD14R,3.800000X3.800000*%
%TD*%
%TA.AperFunction,ComponentPad*%
%ADD15C,4.000000*%
%TD*%
%TA.AperFunction,ComponentPad*%
%ADD16RoundRect,0.250000X0.725000X-0.600000X0.725000X0.600000X-0.725000X0.600000X-0.725000X-0.600000X0*%
%TD*%
%TA.AperFunction,ViaPad*%
%ADD17C,1.000000*%
%TD*%
%TA.AperFunction,Conductor*%
%ADD18C,0.200000*%
%TD*%
G04 APERTURE END LIST*
D10*
%TO.P,J1,1,Pin_1*%
%TO.N,+5V*%
X87330000Y-78030000D03*
D11*
%TO.P,J1,2,Pin_2*%
%TO.N,/CANH*%
X87330000Y-80530000D03*
%TO.P,J1,3,Pin_3*%
%TO.N,/CANL*%
X87330000Y-83030000D03*
%TO.P,J1,4,Pin_4*%
%TO.N,GND*%
X87330000Y-85530000D03*
%TD*%
D12*
%TO.P,J3,1,Pin_1*%
%TO.N,/CANH*%
X94630000Y-78980000D03*
D13*
%TO.P,J3,2,Pin_2*%
%TO.N,/CANL*%
X97130000Y-78980000D03*
%TD*%
D12*
%TO.P,J4,1,Pin_1*%
%TO.N,/CANH*%
X104180000Y-78980000D03*
D13*
%TO.P,J4,2,Pin_2*%
%TO.N,/CANL*%
X106680000Y-78980000D03*
%TD*%
D14*
%TO.P,J14,1,Pin_1*%
%TO.N,/-*%
X108100000Y-60560000D03*
D15*
%TO.P,J14,2,Pin_2*%
%TO.N,/+*%
X108100000Y-55560000D03*
%TD*%
D14*
%TO.P,J13,1,Pin_1*%
%TO.N,/-*%
X94840000Y-60670000D03*
D15*
%TO.P,J13,2,Pin_2*%
%TO.N,/+*%
X94840000Y-55670000D03*
%TD*%
D16*
%TO.P,J2,1,Pin_1*%
%TO.N,+5V*%
X114630000Y-85230000D03*
D11*
%TO.P,J2,2,Pin_2*%
%TO.N,/CANH*%
X114630000Y-82730000D03*
%TO.P,J2,3,Pin_3*%
%TO.N,/CANL*%
X114630000Y-80230000D03*
%TO.P,J2,4,Pin_4*%
%TO.N,GND*%
X114630000Y-77730000D03*
%TD*%
D17*
%TO.N,/-*%
X81010000Y-64280000D03*
X122610000Y-61680000D03*
X83010000Y-60280000D03*
X77010000Y-62280000D03*
X79010000Y-65280000D03*
X124610000Y-62680000D03*
X120610000Y-63680000D03*
X83010000Y-63280000D03*
X82010000Y-61280000D03*
X124610000Y-63680000D03*
X78010000Y-62280000D03*
X80010000Y-60280000D03*
X119610000Y-64680000D03*
X82010000Y-60280000D03*
X80010000Y-65280000D03*
X120610000Y-59680000D03*
X80010000Y-63280000D03*
X123610000Y-62680000D03*
X122610000Y-59680000D03*
X79010000Y-63280000D03*
X117610000Y-63680000D03*
X78010000Y-60280000D03*
X82010000Y-64280000D03*
X118610000Y-64680000D03*
X124610000Y-64680000D03*
X122610000Y-62680000D03*
X83010000Y-61280000D03*
X77010000Y-60280000D03*
X123610000Y-61680000D03*
X78010000Y-61280000D03*
X78010000Y-65280000D03*
X81010000Y-62280000D03*
X82010000Y-65280000D03*
X80010000Y-61280000D03*
X120610000Y-62680000D03*
X117610000Y-62680000D03*
X117610000Y-64680000D03*
X83010000Y-62280000D03*
X121610000Y-62680000D03*
X120610000Y-61680000D03*
X121610000Y-60680000D03*
X79010000Y-60280000D03*
X121610000Y-61680000D03*
X78010000Y-63280000D03*
X117610000Y-61680000D03*
X120610000Y-64680000D03*
X84010000Y-62280000D03*
X123610000Y-64680000D03*
X122610000Y-60680000D03*
X119610000Y-62680000D03*
X79010000Y-64280000D03*
X118610000Y-59680000D03*
X123610000Y-59680000D03*
X84010000Y-65280000D03*
X77010000Y-65280000D03*
X77010000Y-61280000D03*
X84010000Y-61280000D03*
X81010000Y-63280000D03*
X124610000Y-61680000D03*
X80010000Y-64280000D03*
X121610000Y-64680000D03*
X121610000Y-59680000D03*
X122610000Y-63680000D03*
X79010000Y-62280000D03*
X119610000Y-60680000D03*
X118610000Y-62680000D03*
X122610000Y-64680000D03*
X81010000Y-60280000D03*
X80010000Y-62280000D03*
X81010000Y-65280000D03*
X118610000Y-60680000D03*
X79010000Y-61280000D03*
X78010000Y-64280000D03*
X117610000Y-60680000D03*
X117610000Y-59680000D03*
X119610000Y-61680000D03*
X124610000Y-59680000D03*
X119610000Y-59680000D03*
X81010000Y-61280000D03*
X123610000Y-63680000D03*
X121610000Y-63680000D03*
X77010000Y-64280000D03*
X84010000Y-63280000D03*
X123610000Y-60680000D03*
X83010000Y-65280000D03*
X124610000Y-60680000D03*
X84010000Y-64280000D03*
X82010000Y-62280000D03*
X120610000Y-60680000D03*
X82010000Y-63280000D03*
X118610000Y-63680000D03*
X118610000Y-61680000D03*
X119610000Y-63680000D03*
X83010000Y-64280000D03*
X77010000Y-63280000D03*
X84010000Y-60280000D03*
%TD*%
D18*
%TO.N,/CANL*%
X107955000Y-80255000D02*
X108030000Y-80255000D01*
X90105000Y-80255000D02*
X87330000Y-83030000D01*
X114605000Y-80255000D02*
X108030000Y-80255000D01*
X108030000Y-80255000D02*
X98430000Y-80255000D01*
X98430000Y-80255000D02*
X90105000Y-80255000D01*
X97130000Y-78980000D02*
X97155000Y-78980000D01*
X97155000Y-78980000D02*
X98430000Y-80255000D01*
X114630000Y-80230000D02*
X114605000Y-80255000D01*
X106680000Y-78980000D02*
X107955000Y-80255000D01*
%TD*%
%TA.AperFunction,Conductor*%
%TO.N,GND*%
G36*
X123872972Y-73674704D02*
G01*
X123918761Y-73727479D01*
X123930000Y-73779063D01*
X123930000Y-89556000D01*
X123910315Y-89623039D01*
X123857511Y-89668794D01*
X123806000Y-89680000D01*
X76752225Y-89680000D01*
X76685186Y-89660315D01*
X76639431Y-89607511D01*
X76628238Y-89557788D01*
X76566552Y-85280000D01*
X85877769Y-85280000D01*
X86925854Y-85280000D01*
X86887370Y-85346657D01*
X86855000Y-85467465D01*
X86855000Y-85592535D01*
X86887370Y-85713343D01*
X86925854Y-85780000D01*
X85877769Y-85780000D01*
X85888242Y-85846126D01*
X85888242Y-85846129D01*
X85953904Y-86048217D01*
X86050379Y-86237557D01*
X86175272Y-86409459D01*
X86175276Y-86409464D01*
X86325535Y-86559723D01*
X86325540Y-86559727D01*
X86497442Y-86684620D01*
X86686782Y-86781095D01*
X86888872Y-86846757D01*
X87080000Y-86877029D01*
X87080000Y-85934145D01*
X87146657Y-85972630D01*
X87267465Y-86005000D01*
X87392535Y-86005000D01*
X87513343Y-85972630D01*
X87580000Y-85934145D01*
X87580000Y-86877028D01*
X87771127Y-86846757D01*
X87973217Y-86781095D01*
X88162557Y-86684620D01*
X88334459Y-86559727D01*
X88334464Y-86559723D01*
X88484723Y-86409464D01*
X88484727Y-86409459D01*
X88609620Y-86237557D01*
X88706095Y-86048217D01*
X88771757Y-85846129D01*
X88771757Y-85846126D01*
X88782231Y-85780000D01*
X87734146Y-85780000D01*
X87772630Y-85713343D01*
X87805000Y-85592535D01*
X87805000Y-85467465D01*
X87781987Y-85381577D01*
X94229500Y-85381577D01*
X94229500Y-85578422D01*
X94260290Y-85772826D01*
X94321117Y-85960029D01*
X94410476Y-86135405D01*
X94526172Y-86294646D01*
X94665354Y-86433828D01*
X94824595Y-86549524D01*
X94844620Y-86559727D01*
X94999970Y-86638882D01*
X94999972Y-86638882D01*
X94999975Y-86638884D01*
X95100317Y-86671487D01*
X95187173Y-86699709D01*
X95381578Y-86730500D01*
X95381583Y-86730500D01*
X96378422Y-86730500D01*
X96572826Y-86699709D01*
X96760025Y-86638884D01*
X96935405Y-86549524D01*
X97094646Y-86433828D01*
X97233828Y-86294646D01*
X97349524Y-86135405D01*
X97438884Y-85960025D01*
X97499709Y-85772826D01*
X97509130Y-85713343D01*
X97530500Y-85578422D01*
X97530500Y-85381577D01*
X103779500Y-85381577D01*
X103779500Y-85578422D01*
X103810290Y-85772826D01*
X103871117Y-85960029D01*
X103960476Y-86135405D01*
X104076172Y-86294646D01*
X104215354Y-86433828D01*
X104374595Y-86549524D01*
X104394620Y-86559727D01*
X104549970Y-86638882D01*
X104549972Y-86638882D01*
X104549975Y-86638884D01*
X104650317Y-86671487D01*
X104737173Y-86699709D01*
X104931578Y-86730500D01*
X104931583Y-86730500D01*
X105928422Y-86730500D01*
X106122826Y-86699709D01*
X106310025Y-86638884D01*
X106485405Y-86549524D01*
X106644646Y-86433828D01*
X106783828Y-86294646D01*
X106899524Y-86135405D01*
X106988884Y-85960025D01*
X107049709Y-85772826D01*
X107059130Y-85713343D01*
X107080500Y-85578422D01*
X107080500Y-85381577D01*
X107049709Y-85187173D01*
X107021487Y-85100317D01*
X106988884Y-84999975D01*
X106988882Y-84999972D01*
X106988882Y-84999970D01*
X106899523Y-84824594D01*
X106783828Y-84665354D01*
X106694204Y-84575730D01*
X113454500Y-84575730D01*
X113454500Y-85884269D01*
X113457353Y-85914699D01*
X113457353Y-85914701D01*
X113502206Y-86042880D01*
X113502207Y-86042882D01*
X113582850Y-86152150D01*
X113692118Y-86232793D01*
X113705733Y-86237557D01*
X113820299Y-86277646D01*
X113850730Y-86280500D01*
X113850734Y-86280500D01*
X115409270Y-86280500D01*
X115439699Y-86277646D01*
X115439701Y-86277646D01*
X115503790Y-86255219D01*
X115567882Y-86232793D01*
X115677150Y-86152150D01*
X115757793Y-86042882D01*
X115782375Y-85972630D01*
X115802646Y-85914701D01*
X115802646Y-85914699D01*
X115805500Y-85884269D01*
X115805500Y-84575730D01*
X115802646Y-84545300D01*
X115802646Y-84545298D01*
X115757793Y-84417119D01*
X115757792Y-84417117D01*
X115686941Y-84321117D01*
X115677150Y-84307850D01*
X115567882Y-84227207D01*
X115567880Y-84227206D01*
X115439700Y-84182353D01*
X115409270Y-84179500D01*
X115409266Y-84179500D01*
X113850734Y-84179500D01*
X113850730Y-84179500D01*
X113820300Y-84182353D01*
X113820298Y-84182353D01*
X113692119Y-84227206D01*
X113692117Y-84227207D01*
X113582850Y-84307850D01*
X113502207Y-84417117D01*
X113502206Y-84417119D01*
X113457353Y-84545298D01*
X113457353Y-84545300D01*
X113454500Y-84575730D01*
X106694204Y-84575730D01*
X106644646Y-84526172D01*
X106485405Y-84410476D01*
X106310029Y-84321117D01*
X106122826Y-84260290D01*
X105928422Y-84229500D01*
X105928417Y-84229500D01*
X104931583Y-84229500D01*
X104931578Y-84229500D01*
X104737173Y-84260290D01*
X104549970Y-84321117D01*
X104374594Y-84410476D01*
X104283741Y-84476485D01*
X104215354Y-84526172D01*
X104215352Y-84526174D01*
X104215351Y-84526174D01*
X104076174Y-84665351D01*
X104076174Y-84665352D01*
X104076172Y-84665354D01*
X104026485Y-84733741D01*
X103960476Y-84824594D01*
X103871117Y-84999970D01*
X103810290Y-85187173D01*
X103779500Y-85381577D01*
X97530500Y-85381577D01*
X97499709Y-85187173D01*
X97471487Y-85100317D01*
X97438884Y-84999975D01*
X97438882Y-84999972D01*
X97438882Y-84999970D01*
X97349523Y-84824594D01*
X97233828Y-84665354D01*
X97094646Y-84526172D01*
X96935405Y-84410476D01*
X96760029Y-84321117D01*
X96572826Y-84260290D01*
X96378422Y-84229500D01*
X96378417Y-84229500D01*
X95381583Y-84229500D01*
X95381578Y-84229500D01*
X95187173Y-84260290D01*
X94999970Y-84321117D01*
X94824594Y-84410476D01*
X94733741Y-84476485D01*
X94665354Y-84526172D01*
X94665352Y-84526174D01*
X94665351Y-84526174D01*
X94526174Y-84665351D01*
X94526174Y-84665352D01*
X94526172Y-84665354D01*
X94476485Y-84733741D01*
X94410476Y-84824594D01*
X94321117Y-84999970D01*
X94260290Y-85187173D01*
X94229500Y-85381577D01*
X87781987Y-85381577D01*
X87772630Y-85346657D01*
X87734146Y-85280000D01*
X88782231Y-85280000D01*
X88771757Y-85213873D01*
X88771757Y-85213870D01*
X88706095Y-85011782D01*
X88609620Y-84822442D01*
X88484727Y-84650540D01*
X88484723Y-84650535D01*
X88334464Y-84500276D01*
X88334459Y-84500272D01*
X88162557Y-84375379D01*
X87973216Y-84278904D01*
X87851144Y-84239240D01*
X87793468Y-84199802D01*
X87766270Y-84135444D01*
X87778185Y-84066597D01*
X87825429Y-84015122D01*
X87842006Y-84006749D01*
X87952598Y-83960941D01*
X88124655Y-83845977D01*
X88270977Y-83699655D01*
X88385941Y-83527598D01*
X88465130Y-83336420D01*
X88505500Y-83133465D01*
X88505500Y-82926535D01*
X88465130Y-82723580D01*
X88424930Y-82626530D01*
X113454500Y-82626530D01*
X113454500Y-82833469D01*
X113486561Y-82994648D01*
X113494870Y-83036420D01*
X113574059Y-83227598D01*
X113631541Y-83313626D01*
X113689024Y-83399657D01*
X113835342Y-83545975D01*
X113835345Y-83545977D01*
X114007402Y-83660941D01*
X114198580Y-83740130D01*
X114401530Y-83780499D01*
X114401534Y-83780500D01*
X114401535Y-83780500D01*
X114858466Y-83780500D01*
X114858467Y-83780499D01*
X115061420Y-83740130D01*
X115252598Y-83660941D01*
X115424655Y-83545977D01*
X115570977Y-83399655D01*
X115685941Y-83227598D01*
X115765130Y-83036420D01*
X115805500Y-82833465D01*
X115805500Y-82626535D01*
X115765130Y-82423580D01*
X115685941Y-82232402D01*
X115570977Y-82060345D01*
X115570975Y-82060342D01*
X115424657Y-81914024D01*
X115338626Y-81856541D01*
X115252598Y-81799059D01*
X115061420Y-81719870D01*
X115061412Y-81719868D01*
X114858469Y-81679500D01*
X114858465Y-81679500D01*
X114401535Y-81679500D01*
X114401530Y-81679500D01*
X114198587Y-81719868D01*
X114198579Y-81719870D01*
X114007403Y-81799058D01*
X113835342Y-81914024D01*
X113689024Y-82060342D01*
X113574058Y-82232403D01*
X113494870Y-82423579D01*
X113494868Y-82423587D01*
X113454500Y-82626530D01*
X88424930Y-82626530D01*
X88385941Y-82532402D01*
X88385938Y-82532398D01*
X88383072Y-82527035D01*
X88385497Y-82525738D01*
X88368177Y-82470328D01*
X88386693Y-82402956D01*
X88404473Y-82380496D01*
X90193152Y-80591819D01*
X90254475Y-80558334D01*
X90280833Y-80555500D01*
X98390438Y-80555500D01*
X98469562Y-80555500D01*
X107915438Y-80555500D01*
X107990438Y-80555500D01*
X113419919Y-80555500D01*
X113486958Y-80575185D01*
X113532713Y-80627989D01*
X113534480Y-80632047D01*
X113574057Y-80727596D01*
X113689024Y-80899657D01*
X113835342Y-81045975D01*
X113835345Y-81045977D01*
X114007402Y-81160941D01*
X114198580Y-81240130D01*
X114401530Y-81280499D01*
X114401534Y-81280500D01*
X114401535Y-81280500D01*
X114858466Y-81280500D01*
X114858467Y-81280499D01*
X115061420Y-81240130D01*
X115252598Y-81160941D01*
X115424655Y-81045977D01*
X115489055Y-80981577D01*
X119879500Y-80981577D01*
X119879500Y-81978422D01*
X119910290Y-82172826D01*
X119971117Y-82360029D01*
X120055550Y-82525738D01*
X120060476Y-82535405D01*
X120176172Y-82694646D01*
X120315354Y-82833828D01*
X120474595Y-82949524D01*
X120557455Y-82991743D01*
X120649970Y-83038882D01*
X120649972Y-83038882D01*
X120649975Y-83038884D01*
X120750317Y-83071487D01*
X120837173Y-83099709D01*
X121031578Y-83130500D01*
X121031583Y-83130500D01*
X121228422Y-83130500D01*
X121422826Y-83099709D01*
X121610025Y-83038884D01*
X121785405Y-82949524D01*
X121944646Y-82833828D01*
X122083828Y-82694646D01*
X122199524Y-82535405D01*
X122288721Y-82360345D01*
X122288882Y-82360029D01*
X122288882Y-82360028D01*
X122288884Y-82360025D01*
X122349709Y-82172826D01*
X122380500Y-81978422D01*
X122380500Y-80981577D01*
X122349709Y-80787173D01*
X122299766Y-80633466D01*
X122288884Y-80599975D01*
X122288882Y-80599972D01*
X122288882Y-80599970D01*
X122200512Y-80426535D01*
X122199524Y-80424595D01*
X122083828Y-80265354D01*
X121944646Y-80126172D01*
X121785405Y-80010476D01*
X121610029Y-79921117D01*
X121422826Y-79860290D01*
X121228422Y-79829500D01*
X121228417Y-79829500D01*
X121031583Y-79829500D01*
X121031578Y-79829500D01*
X120837173Y-79860290D01*
X120649970Y-79921117D01*
X120474594Y-80010476D01*
X120444415Y-80032403D01*
X120315354Y-80126172D01*
X120315352Y-80126174D01*
X120315351Y-80126174D01*
X120176174Y-80265351D01*
X120176174Y-80265352D01*
X120176172Y-80265354D01*
X120143389Y-80310476D01*
X120060476Y-80424594D01*
X119971117Y-80599970D01*
X119910290Y-80787173D01*
X119879500Y-80981577D01*
X115489055Y-80981577D01*
X115570977Y-80899655D01*
X115685941Y-80727598D01*
X115765130Y-80536420D01*
X115805500Y-80333465D01*
X115805500Y-80126535D01*
X115765130Y-79923580D01*
X115685941Y-79732402D01*
X115570977Y-79560345D01*
X115570975Y-79560342D01*
X115424657Y-79414024D01*
X115252596Y-79299057D01*
X115142009Y-79253251D01*
X115087606Y-79209410D01*
X115065541Y-79143116D01*
X115082820Y-79075416D01*
X115133958Y-79027806D01*
X115151144Y-79020759D01*
X115273217Y-78981095D01*
X115462557Y-78884620D01*
X115634459Y-78759727D01*
X115634464Y-78759723D01*
X115784723Y-78609464D01*
X115784727Y-78609459D01*
X115909620Y-78437557D01*
X116006095Y-78248217D01*
X116071757Y-78046129D01*
X116071757Y-78046126D01*
X116082231Y-77980000D01*
X115034146Y-77980000D01*
X115072630Y-77913343D01*
X115105000Y-77792535D01*
X115105000Y-77667465D01*
X115072630Y-77546657D01*
X115034146Y-77480000D01*
X116082231Y-77480000D01*
X116071757Y-77413873D01*
X116071757Y-77413870D01*
X116006095Y-77211782D01*
X115909620Y-77022442D01*
X115784727Y-76850540D01*
X115784723Y-76850535D01*
X115634464Y-76700276D01*
X115634459Y-76700272D01*
X115462557Y-76575379D01*
X115273217Y-76478904D01*
X115071128Y-76413242D01*
X114880000Y-76382969D01*
X114880000Y-77325854D01*
X114813343Y-77287370D01*
X114692535Y-77255000D01*
X114567465Y-77255000D01*
X114446657Y-77287370D01*
X114380000Y-77325854D01*
X114380000Y-76382969D01*
X114188872Y-76413242D01*
X114188869Y-76413242D01*
X113986782Y-76478904D01*
X113797442Y-76575379D01*
X113625540Y-76700272D01*
X113625535Y-76700276D01*
X113475276Y-76850535D01*
X113475272Y-76850540D01*
X113350379Y-77022442D01*
X113253904Y-77211782D01*
X113188242Y-77413870D01*
X113188242Y-77413873D01*
X113177769Y-77480000D01*
X114225854Y-77480000D01*
X114187370Y-77546657D01*
X114155000Y-77667465D01*
X114155000Y-77792535D01*
X114187370Y-77913343D01*
X114225854Y-77980000D01*
X113177769Y-77980000D01*
X113188242Y-78046126D01*
X113188242Y-78046129D01*
X113253904Y-78248217D01*
X113350379Y-78437557D01*
X113475272Y-78609459D01*
X113475276Y-78609464D01*
X113625535Y-78759723D01*
X113625540Y-78759727D01*
X113797442Y-78884620D01*
X113986782Y-78981095D01*
X114108855Y-79020759D01*
X114166530Y-79060196D01*
X114193729Y-79124555D01*
X114181815Y-79193401D01*
X114134570Y-79244877D01*
X114117990Y-79253251D01*
X114007404Y-79299057D01*
X113835342Y-79414024D01*
X113689024Y-79560342D01*
X113574056Y-79732405D01*
X113513770Y-79877952D01*
X113469929Y-79932356D01*
X113403635Y-79954421D01*
X113399209Y-79954500D01*
X108130833Y-79954500D01*
X108063794Y-79934815D01*
X108043152Y-79918181D01*
X107703687Y-79578716D01*
X107670202Y-79517393D01*
X107675186Y-79447701D01*
X107676790Y-79443624D01*
X107690130Y-79411420D01*
X107730500Y-79208465D01*
X107730500Y-78751535D01*
X107690130Y-78548580D01*
X107610941Y-78357402D01*
X107495977Y-78185345D01*
X107495975Y-78185342D01*
X107349657Y-78039024D01*
X107261320Y-77980000D01*
X107177598Y-77924059D01*
X107151727Y-77913343D01*
X106986420Y-77844870D01*
X106986412Y-77844868D01*
X106783469Y-77804500D01*
X106783465Y-77804500D01*
X106576535Y-77804500D01*
X106576530Y-77804500D01*
X106373587Y-77844868D01*
X106373579Y-77844870D01*
X106182403Y-77924058D01*
X106010342Y-78039024D01*
X105864024Y-78185342D01*
X105749058Y-78357403D01*
X105669870Y-78548579D01*
X105669868Y-78548587D01*
X105629500Y-78751530D01*
X105629500Y-79208469D01*
X105669868Y-79411412D01*
X105669870Y-79411420D01*
X105749059Y-79602599D01*
X105749059Y-79602600D01*
X105855306Y-79761610D01*
X105876184Y-79828287D01*
X105857699Y-79895667D01*
X105805720Y-79942357D01*
X105752204Y-79954500D01*
X105344742Y-79954500D01*
X105277703Y-79934815D01*
X105231948Y-79882011D01*
X105222004Y-79812853D01*
X105227513Y-79790307D01*
X105227646Y-79789699D01*
X105230500Y-79759269D01*
X105230500Y-78200730D01*
X105227646Y-78170300D01*
X105227646Y-78170298D01*
X105194006Y-78074163D01*
X105182793Y-78042118D01*
X105102150Y-77932850D01*
X104992882Y-77852207D01*
X104992880Y-77852206D01*
X104864700Y-77807353D01*
X104834270Y-77804500D01*
X104834266Y-77804500D01*
X103525734Y-77804500D01*
X103525730Y-77804500D01*
X103495300Y-77807353D01*
X103495298Y-77807353D01*
X103367119Y-77852206D01*
X103367117Y-77852207D01*
X103257850Y-77932850D01*
X103177207Y-78042117D01*
X103177206Y-78042119D01*
X103132353Y-78170298D01*
X103132353Y-78170300D01*
X103129500Y-78200730D01*
X103129500Y-79759269D01*
X103132353Y-79789699D01*
X103133964Y-79797073D01*
X103132698Y-79797349D01*
X103135861Y-79859327D01*
X103101130Y-79919954D01*
X103039136Y-79952179D01*
X103015258Y-79954500D01*
X98605833Y-79954500D01*
X98538794Y-79934815D01*
X98518152Y-79918181D01*
X98161009Y-79561038D01*
X98127524Y-79499715D01*
X98132508Y-79430023D01*
X98134113Y-79425945D01*
X98140130Y-79411420D01*
X98180500Y-79208465D01*
X98180500Y-78751535D01*
X98140130Y-78548580D01*
X98060941Y-78357402D01*
X97945977Y-78185345D01*
X97945975Y-78185342D01*
X97799657Y-78039024D01*
X97711320Y-77980000D01*
X97627598Y-77924059D01*
X97601727Y-77913343D01*
X97436420Y-77844870D01*
X97436412Y-77844868D01*
X97233469Y-77804500D01*
X97233465Y-77804500D01*
X97026535Y-77804500D01*
X97026530Y-77804500D01*
X96823587Y-77844868D01*
X96823579Y-77844870D01*
X96632403Y-77924058D01*
X96460342Y-78039024D01*
X96314024Y-78185342D01*
X96199058Y-78357403D01*
X96119870Y-78548579D01*
X96119868Y-78548587D01*
X96079500Y-78751530D01*
X96079500Y-79208469D01*
X96119868Y-79411412D01*
X96119870Y-79411420D01*
X96199059Y-79602599D01*
X96199059Y-79602600D01*
X96305306Y-79761610D01*
X96326184Y-79828287D01*
X96307699Y-79895667D01*
X96255720Y-79942357D01*
X96202204Y-79954500D01*
X95794742Y-79954500D01*
X95727703Y-79934815D01*
X95681948Y-79882011D01*
X95672004Y-79812853D01*
X95677513Y-79790307D01*
X95677646Y-79789699D01*
X95680500Y-79759269D01*
X95680500Y-78200730D01*
X95677646Y-78170300D01*
X95677646Y-78170298D01*
X95644006Y-78074163D01*
X95632793Y-78042118D01*
X95552150Y-77932850D01*
X95442882Y-77852207D01*
X95442880Y-77852206D01*
X95314700Y-77807353D01*
X95284270Y-77804500D01*
X95284266Y-77804500D01*
X93975734Y-77804500D01*
X93975730Y-77804500D01*
X93945300Y-77807353D01*
X93945298Y-77807353D01*
X93817119Y-77852206D01*
X93817117Y-77852207D01*
X93707850Y-77932850D01*
X93627207Y-78042117D01*
X93627206Y-78042119D01*
X93582353Y-78170298D01*
X93582353Y-78170300D01*
X93579500Y-78200730D01*
X93579500Y-79759269D01*
X93582353Y-79789699D01*
X93583964Y-79797073D01*
X93582698Y-79797349D01*
X93585861Y-79859327D01*
X93551130Y-79919954D01*
X93489136Y-79952179D01*
X93465258Y-79954500D01*
X90065438Y-79954500D01*
X89989010Y-79974978D01*
X89920489Y-80014540D01*
X89920486Y-80014542D01*
X87928715Y-82006312D01*
X87867392Y-82039797D01*
X87797700Y-82034813D01*
X87793600Y-82033199D01*
X87761420Y-82019870D01*
X87761412Y-82019868D01*
X87558469Y-81979500D01*
X87558465Y-81979500D01*
X87101535Y-81979500D01*
X87101530Y-81979500D01*
X86898587Y-82019868D01*
X86898579Y-82019870D01*
X86707403Y-82099058D01*
X86535342Y-82214024D01*
X86389024Y-82360342D01*
X86274058Y-82532403D01*
X86194870Y-82723579D01*
X86194868Y-82723587D01*
X86154500Y-82926530D01*
X86154500Y-83133469D01*
X86177585Y-83249523D01*
X86194870Y-83336420D01*
X86274059Y-83527598D01*
X86331541Y-83613626D01*
X86389024Y-83699657D01*
X86535342Y-83845975D01*
X86535345Y-83845977D01*
X86707402Y-83960941D01*
X86817990Y-84006748D01*
X86872393Y-84050589D01*
X86894458Y-84116883D01*
X86877179Y-84184582D01*
X86826042Y-84232193D01*
X86808856Y-84239240D01*
X86686781Y-84278905D01*
X86497442Y-84375379D01*
X86325540Y-84500272D01*
X86325535Y-84500276D01*
X86175276Y-84650535D01*
X86175272Y-84650540D01*
X86050379Y-84822442D01*
X85953904Y-85011782D01*
X85888242Y-85213870D01*
X85888242Y-85213873D01*
X85877769Y-85280000D01*
X76566552Y-85280000D01*
X76551544Y-84239240D01*
X76508894Y-81281577D01*
X79579500Y-81281577D01*
X79579500Y-82278422D01*
X79610290Y-82472826D01*
X79671117Y-82660029D01*
X79703502Y-82723587D01*
X79760476Y-82835405D01*
X79876172Y-82994646D01*
X80015354Y-83133828D01*
X80174595Y-83249524D01*
X80257455Y-83291743D01*
X80349970Y-83338882D01*
X80349972Y-83338882D01*
X80349975Y-83338884D01*
X80450317Y-83371487D01*
X80537173Y-83399709D01*
X80731578Y-83430500D01*
X80731583Y-83430500D01*
X80928422Y-83430500D01*
X81122826Y-83399709D01*
X81122992Y-83399655D01*
X81310025Y-83338884D01*
X81485405Y-83249524D01*
X81644646Y-83133828D01*
X81783828Y-82994646D01*
X81899524Y-82835405D01*
X81988884Y-82660025D01*
X82049709Y-82472826D01*
X82067525Y-82360342D01*
X82080500Y-82278422D01*
X82080500Y-81281577D01*
X82049709Y-81087173D01*
X81988882Y-80899970D01*
X81899523Y-80724594D01*
X81783828Y-80565354D01*
X81645004Y-80426530D01*
X86154500Y-80426530D01*
X86154500Y-80633469D01*
X86194868Y-80836412D01*
X86194870Y-80836420D01*
X86221195Y-80899975D01*
X86274059Y-81027598D01*
X86313866Y-81087174D01*
X86389024Y-81199657D01*
X86535342Y-81345975D01*
X86535345Y-81345977D01*
X86707402Y-81460941D01*
X86898580Y-81540130D01*
X87101530Y-81580499D01*
X87101534Y-81580500D01*
X87101535Y-81580500D01*
X87558466Y-81580500D01*
X87558467Y-81580499D01*
X87761420Y-81540130D01*
X87952598Y-81460941D01*
X88124655Y-81345977D01*
X88270977Y-81199655D01*
X88385941Y-81027598D01*
X88465130Y-80836420D01*
X88505500Y-80633465D01*
X88505500Y-80426535D01*
X88465130Y-80223580D01*
X88385941Y-80032402D01*
X88270977Y-79860345D01*
X88270975Y-79860342D01*
X88124657Y-79714024D01*
X88038626Y-79656541D01*
X87952598Y-79599059D01*
X87859127Y-79560342D01*
X87761420Y-79519870D01*
X87761412Y-79519868D01*
X87558469Y-79479500D01*
X87558465Y-79479500D01*
X87101535Y-79479500D01*
X87101530Y-79479500D01*
X86898587Y-79519868D01*
X86898579Y-79519870D01*
X86707403Y-79599058D01*
X86535342Y-79714024D01*
X86389024Y-79860342D01*
X86274058Y-80032403D01*
X86194870Y-80223579D01*
X86194868Y-80223587D01*
X86154500Y-80426530D01*
X81645004Y-80426530D01*
X81644646Y-80426172D01*
X81485405Y-80310476D01*
X81310029Y-80221117D01*
X81122826Y-80160290D01*
X80928422Y-80129500D01*
X80928417Y-80129500D01*
X80731583Y-80129500D01*
X80731578Y-80129500D01*
X80537173Y-80160290D01*
X80349970Y-80221117D01*
X80174594Y-80310476D01*
X80083741Y-80376485D01*
X80015354Y-80426172D01*
X80015352Y-80426174D01*
X80015351Y-80426174D01*
X79876174Y-80565351D01*
X79876174Y-80565352D01*
X79876172Y-80565354D01*
X79830665Y-80627989D01*
X79760476Y-80724594D01*
X79671117Y-80899970D01*
X79610290Y-81087173D01*
X79579500Y-81281577D01*
X76508894Y-81281577D01*
X76452572Y-77375730D01*
X86154500Y-77375730D01*
X86154500Y-78684269D01*
X86157353Y-78714699D01*
X86157353Y-78714701D01*
X86202206Y-78842880D01*
X86202207Y-78842882D01*
X86282850Y-78952150D01*
X86392118Y-79032793D01*
X86434845Y-79047744D01*
X86520299Y-79077646D01*
X86550730Y-79080500D01*
X86550734Y-79080500D01*
X88109270Y-79080500D01*
X88139699Y-79077646D01*
X88139701Y-79077646D01*
X88203790Y-79055219D01*
X88267882Y-79032793D01*
X88377150Y-78952150D01*
X88457793Y-78842882D01*
X88486890Y-78759727D01*
X88502646Y-78714701D01*
X88502646Y-78714699D01*
X88505500Y-78684269D01*
X88505500Y-77375730D01*
X88502646Y-77345300D01*
X88502646Y-77345298D01*
X88457793Y-77217119D01*
X88457792Y-77217117D01*
X88453855Y-77211782D01*
X88377150Y-77107850D01*
X88267882Y-77027207D01*
X88267880Y-77027206D01*
X88139700Y-76982353D01*
X88109270Y-76979500D01*
X88109266Y-76979500D01*
X86550734Y-76979500D01*
X86550730Y-76979500D01*
X86520300Y-76982353D01*
X86520298Y-76982353D01*
X86392119Y-77027206D01*
X86392117Y-77027207D01*
X86282850Y-77107850D01*
X86202207Y-77217117D01*
X86202206Y-77217119D01*
X86157353Y-77345298D01*
X86157353Y-77345300D01*
X86154500Y-77375730D01*
X76452572Y-77375730D01*
X76401173Y-73811342D01*
X76419889Y-73744029D01*
X76472028Y-73697517D01*
X76525075Y-73685557D01*
X123805923Y-73655063D01*
X123872972Y-73674704D01*
G37*
%TD.AperFunction*%
%TD*%
%TA.AperFunction,Conductor*%
%TO.N,/-*%
G36*
X125143039Y-57919685D02*
G01*
X125188794Y-57972489D01*
X125200000Y-58024000D01*
X125200000Y-66176000D01*
X125180315Y-66243039D01*
X125127511Y-66288794D01*
X125076000Y-66300000D01*
X76424500Y-66300000D01*
X76357461Y-66280315D01*
X76311706Y-66227511D01*
X76300500Y-66176000D01*
X76300500Y-58722155D01*
X92440000Y-58722155D01*
X92440000Y-60420000D01*
X93512769Y-60420000D01*
X93490000Y-60563753D01*
X93490000Y-60776247D01*
X93512769Y-60920000D01*
X92440000Y-60920000D01*
X92440000Y-62617844D01*
X92446401Y-62677372D01*
X92446403Y-62677379D01*
X92496645Y-62812086D01*
X92496649Y-62812093D01*
X92582809Y-62927187D01*
X92582812Y-62927190D01*
X92697906Y-63013350D01*
X92697913Y-63013354D01*
X92832620Y-63063596D01*
X92832627Y-63063598D01*
X92892155Y-63069999D01*
X92892172Y-63070000D01*
X94590000Y-63070000D01*
X94590000Y-61997231D01*
X94733753Y-62020000D01*
X94946247Y-62020000D01*
X95090000Y-61997231D01*
X95090000Y-63070000D01*
X96787828Y-63070000D01*
X96787844Y-63069999D01*
X96847372Y-63063598D01*
X96847379Y-63063596D01*
X96982086Y-63013354D01*
X96982093Y-63013350D01*
X97097187Y-62927190D01*
X97097190Y-62927187D01*
X97183350Y-62812093D01*
X97183354Y-62812086D01*
X97233596Y-62677379D01*
X97233598Y-62677372D01*
X97239999Y-62617844D01*
X97240000Y-62617827D01*
X97240000Y-60920000D01*
X96167231Y-60920000D01*
X96190000Y-60776247D01*
X96190000Y-60563753D01*
X96167231Y-60420000D01*
X97240000Y-60420000D01*
X97240000Y-58722172D01*
X97239999Y-58722155D01*
X97233598Y-58662627D01*
X97233596Y-58662620D01*
X97214774Y-58612155D01*
X105700000Y-58612155D01*
X105700000Y-60310000D01*
X106772769Y-60310000D01*
X106750000Y-60453753D01*
X106750000Y-60666247D01*
X106772769Y-60810000D01*
X105700000Y-60810000D01*
X105700000Y-62507844D01*
X105706401Y-62567372D01*
X105706403Y-62567379D01*
X105756645Y-62702086D01*
X105756649Y-62702093D01*
X105842809Y-62817187D01*
X105842812Y-62817190D01*
X105957906Y-62903350D01*
X105957913Y-62903354D01*
X106092620Y-62953596D01*
X106092627Y-62953598D01*
X106152155Y-62959999D01*
X106152172Y-62960000D01*
X107850000Y-62960000D01*
X107850000Y-61887231D01*
X107993753Y-61910000D01*
X108206247Y-61910000D01*
X108350000Y-61887231D01*
X108350000Y-62960000D01*
X110047828Y-62960000D01*
X110047844Y-62959999D01*
X110107372Y-62953598D01*
X110107379Y-62953596D01*
X110242086Y-62903354D01*
X110242093Y-62903350D01*
X110357187Y-62817190D01*
X110357190Y-62817187D01*
X110443350Y-62702093D01*
X110443354Y-62702086D01*
X110493596Y-62567379D01*
X110493598Y-62567372D01*
X110499999Y-62507844D01*
X110500000Y-62507827D01*
X110500000Y-60810000D01*
X109427231Y-60810000D01*
X109450000Y-60666247D01*
X109450000Y-60453753D01*
X109427231Y-60310000D01*
X110500000Y-60310000D01*
X110500000Y-58612172D01*
X110499999Y-58612155D01*
X110493598Y-58552627D01*
X110493596Y-58552620D01*
X110443354Y-58417913D01*
X110443350Y-58417906D01*
X110357190Y-58302812D01*
X110357187Y-58302809D01*
X110242093Y-58216649D01*
X110242086Y-58216645D01*
X110107379Y-58166403D01*
X110107372Y-58166401D01*
X110047844Y-58160000D01*
X108350000Y-58160000D01*
X108350000Y-59232768D01*
X108206247Y-59210000D01*
X107993753Y-59210000D01*
X107850000Y-59232768D01*
X107850000Y-58160000D01*
X106152155Y-58160000D01*
X106092627Y-58166401D01*
X106092620Y-58166403D01*
X105957913Y-58216645D01*
X105957906Y-58216649D01*
X105842812Y-58302809D01*
X105842809Y-58302812D01*
X105756649Y-58417906D01*
X105756645Y-58417913D01*
X105706403Y-58552620D01*
X105706401Y-58552627D01*
X105700000Y-58612155D01*
X97214774Y-58612155D01*
X97183354Y-58527913D01*
X97183350Y-58527906D01*
X97097190Y-58412812D01*
X97097187Y-58412809D01*
X96982093Y-58326649D01*
X96982086Y-58326645D01*
X96847379Y-58276403D01*
X96847372Y-58276401D01*
X96787844Y-58270000D01*
X95090000Y-58270000D01*
X95090000Y-59342768D01*
X94946247Y-59320000D01*
X94733753Y-59320000D01*
X94590000Y-59342768D01*
X94590000Y-58270000D01*
X92892155Y-58270000D01*
X92832627Y-58276401D01*
X92832620Y-58276403D01*
X92697913Y-58326645D01*
X92697906Y-58326649D01*
X92582812Y-58412809D01*
X92582809Y-58412812D01*
X92496649Y-58527906D01*
X92496645Y-58527913D01*
X92446403Y-58662620D01*
X92446401Y-58662627D01*
X92440000Y-58722155D01*
X76300500Y-58722155D01*
X76300500Y-58024000D01*
X76320185Y-57956961D01*
X76372989Y-57911206D01*
X76424500Y-57900000D01*
X125076000Y-57900000D01*
X125143039Y-57919685D01*
G37*
%TD.AperFunction*%
%TD*%
M02*
