%TF.GenerationSoftware,KiCad,Pcbnew,8.0.2*%
%TF.CreationDate,2024-06-04T11:42:55+09:00*%
%TF.ProjectId,RoboMaster branch circuit substrate,526f626f-4d61-4737-9465-72206272616e,rev?*%
%TF.SameCoordinates,Original*%
%TF.FileFunction,Legend,Bot*%
%TF.FilePolarity,Positive*%
%FSLAX46Y46*%
G04 Gerber Fmt 4.6, Leading zero omitted, Abs format (unit mm)*
G04 Created by KiCad (PCBNEW 8.0.2) date 2024-06-04 11:42:55*
%MOMM*%
%LPD*%
G01*
G04 APERTURE LIST*
%ADD10C,0.125000*%
%ADD11C,0.000000*%
G04 APERTURE END LIST*
D10*
X111198716Y-71138261D02*
X111293954Y-71233500D01*
X111293954Y-71233500D02*
X111579668Y-71328738D01*
X111579668Y-71328738D02*
X111770144Y-71328738D01*
X111770144Y-71328738D02*
X112055859Y-71233500D01*
X112055859Y-71233500D02*
X112246335Y-71043023D01*
X112246335Y-71043023D02*
X112341573Y-70852547D01*
X112341573Y-70852547D02*
X112436811Y-70471595D01*
X112436811Y-70471595D02*
X112436811Y-70185880D01*
X112436811Y-70185880D02*
X112341573Y-69804928D01*
X112341573Y-69804928D02*
X112246335Y-69614452D01*
X112246335Y-69614452D02*
X112055859Y-69423976D01*
X112055859Y-69423976D02*
X111770144Y-69328738D01*
X111770144Y-69328738D02*
X111579668Y-69328738D01*
X111579668Y-69328738D02*
X111293954Y-69423976D01*
X111293954Y-69423976D02*
X111198716Y-69519214D01*
X110341573Y-71328738D02*
X110341573Y-69995404D01*
X110341573Y-70376357D02*
X110246335Y-70185880D01*
X110246335Y-70185880D02*
X110151097Y-70090642D01*
X110151097Y-70090642D02*
X109960621Y-69995404D01*
X109960621Y-69995404D02*
X109770144Y-69995404D01*
X108341573Y-71233500D02*
X108532049Y-71328738D01*
X108532049Y-71328738D02*
X108913002Y-71328738D01*
X108913002Y-71328738D02*
X109103478Y-71233500D01*
X109103478Y-71233500D02*
X109198716Y-71043023D01*
X109198716Y-71043023D02*
X109198716Y-70281119D01*
X109198716Y-70281119D02*
X109103478Y-70090642D01*
X109103478Y-70090642D02*
X108913002Y-69995404D01*
X108913002Y-69995404D02*
X108532049Y-69995404D01*
X108532049Y-69995404D02*
X108341573Y-70090642D01*
X108341573Y-70090642D02*
X108246335Y-70281119D01*
X108246335Y-70281119D02*
X108246335Y-70471595D01*
X108246335Y-70471595D02*
X109198716Y-70662071D01*
X106532049Y-71328738D02*
X106532049Y-70281119D01*
X106532049Y-70281119D02*
X106627287Y-70090642D01*
X106627287Y-70090642D02*
X106817763Y-69995404D01*
X106817763Y-69995404D02*
X107198716Y-69995404D01*
X107198716Y-69995404D02*
X107389192Y-70090642D01*
X106532049Y-71233500D02*
X106722525Y-71328738D01*
X106722525Y-71328738D02*
X107198716Y-71328738D01*
X107198716Y-71328738D02*
X107389192Y-71233500D01*
X107389192Y-71233500D02*
X107484430Y-71043023D01*
X107484430Y-71043023D02*
X107484430Y-70852547D01*
X107484430Y-70852547D02*
X107389192Y-70662071D01*
X107389192Y-70662071D02*
X107198716Y-70566833D01*
X107198716Y-70566833D02*
X106722525Y-70566833D01*
X106722525Y-70566833D02*
X106532049Y-70471595D01*
X105865382Y-69995404D02*
X105103478Y-69995404D01*
X105579668Y-69328738D02*
X105579668Y-71043023D01*
X105579668Y-71043023D02*
X105484430Y-71233500D01*
X105484430Y-71233500D02*
X105293954Y-71328738D01*
X105293954Y-71328738D02*
X105103478Y-71328738D01*
X103674906Y-71233500D02*
X103865382Y-71328738D01*
X103865382Y-71328738D02*
X104246335Y-71328738D01*
X104246335Y-71328738D02*
X104436811Y-71233500D01*
X104436811Y-71233500D02*
X104532049Y-71043023D01*
X104532049Y-71043023D02*
X104532049Y-70281119D01*
X104532049Y-70281119D02*
X104436811Y-70090642D01*
X104436811Y-70090642D02*
X104246335Y-69995404D01*
X104246335Y-69995404D02*
X103865382Y-69995404D01*
X103865382Y-69995404D02*
X103674906Y-70090642D01*
X103674906Y-70090642D02*
X103579668Y-70281119D01*
X103579668Y-70281119D02*
X103579668Y-70471595D01*
X103579668Y-70471595D02*
X104532049Y-70662071D01*
X101865382Y-71328738D02*
X101865382Y-69328738D01*
X101865382Y-71233500D02*
X102055858Y-71328738D01*
X102055858Y-71328738D02*
X102436811Y-71328738D01*
X102436811Y-71328738D02*
X102627287Y-71233500D01*
X102627287Y-71233500D02*
X102722525Y-71138261D01*
X102722525Y-71138261D02*
X102817763Y-70947785D01*
X102817763Y-70947785D02*
X102817763Y-70376357D01*
X102817763Y-70376357D02*
X102722525Y-70185880D01*
X102722525Y-70185880D02*
X102627287Y-70090642D01*
X102627287Y-70090642D02*
X102436811Y-69995404D01*
X102436811Y-69995404D02*
X102055858Y-69995404D01*
X102055858Y-69995404D02*
X101865382Y-70090642D01*
X99389191Y-71328738D02*
X99389191Y-69328738D01*
X99389191Y-70090642D02*
X99198715Y-69995404D01*
X99198715Y-69995404D02*
X98817762Y-69995404D01*
X98817762Y-69995404D02*
X98627286Y-70090642D01*
X98627286Y-70090642D02*
X98532048Y-70185880D01*
X98532048Y-70185880D02*
X98436810Y-70376357D01*
X98436810Y-70376357D02*
X98436810Y-70947785D01*
X98436810Y-70947785D02*
X98532048Y-71138261D01*
X98532048Y-71138261D02*
X98627286Y-71233500D01*
X98627286Y-71233500D02*
X98817762Y-71328738D01*
X98817762Y-71328738D02*
X99198715Y-71328738D01*
X99198715Y-71328738D02*
X99389191Y-71233500D01*
X97770143Y-69995404D02*
X97293953Y-71328738D01*
X96817762Y-69995404D02*
X97293953Y-71328738D01*
X97293953Y-71328738D02*
X97484429Y-71804928D01*
X97484429Y-71804928D02*
X97579667Y-71900166D01*
X97579667Y-71900166D02*
X97770143Y-71995404D01*
D11*
%TO.C,G\u002A\u002A\u002A*%
G36*
X94851181Y-69528153D02*
G01*
X94851180Y-69533912D01*
X94851112Y-69757450D01*
X94850977Y-69971610D01*
X94850774Y-70175986D01*
X94850506Y-70370170D01*
X94850175Y-70553758D01*
X94849783Y-70726342D01*
X94849332Y-70887516D01*
X94848822Y-71036874D01*
X94848257Y-71174009D01*
X94847638Y-71298514D01*
X94846967Y-71409984D01*
X94846246Y-71508011D01*
X94845476Y-71592190D01*
X94844660Y-71662113D01*
X94843799Y-71717376D01*
X94842895Y-71757570D01*
X94841950Y-71782290D01*
X94840965Y-71791129D01*
X94834145Y-71794141D01*
X94814294Y-71793777D01*
X94814170Y-71793737D01*
X94812285Y-71791952D01*
X94810543Y-71787576D01*
X94808935Y-71779986D01*
X94807457Y-71768560D01*
X94806100Y-71752675D01*
X94804858Y-71731709D01*
X94803724Y-71705039D01*
X94802693Y-71672043D01*
X94801756Y-71632097D01*
X94800907Y-71584580D01*
X94800140Y-71528869D01*
X94799447Y-71464341D01*
X94798823Y-71390374D01*
X94798259Y-71306345D01*
X94797751Y-71211632D01*
X94797290Y-71105612D01*
X94796870Y-70987663D01*
X94796484Y-70857161D01*
X94796126Y-70713486D01*
X94795788Y-70556013D01*
X94795465Y-70384120D01*
X94795149Y-70197185D01*
X94794834Y-69994586D01*
X94792133Y-68200285D01*
X92982437Y-69840390D01*
X92881605Y-69931772D01*
X92723739Y-70074837D01*
X92568660Y-70215371D01*
X92417014Y-70352789D01*
X92269445Y-70486507D01*
X92126601Y-70615938D01*
X91989126Y-70740498D01*
X91857667Y-70859603D01*
X91732870Y-70972666D01*
X91615380Y-71079103D01*
X91505843Y-71178328D01*
X91404906Y-71269757D01*
X91313213Y-71352804D01*
X91231411Y-71426885D01*
X91160145Y-71491414D01*
X91100062Y-71545807D01*
X91051808Y-71589477D01*
X91016027Y-71621841D01*
X90993367Y-71642313D01*
X90958995Y-71673158D01*
X90904084Y-71721489D01*
X90861196Y-71757740D01*
X90829656Y-71782454D01*
X90808789Y-71796174D01*
X90797922Y-71799441D01*
X90797313Y-71799099D01*
X90795730Y-71796333D01*
X90794261Y-71790456D01*
X90792903Y-71780917D01*
X90791653Y-71767169D01*
X90790507Y-71748661D01*
X90789462Y-71724846D01*
X90788516Y-71695174D01*
X90787664Y-71659096D01*
X90786904Y-71616064D01*
X90786232Y-71565527D01*
X90785645Y-71506938D01*
X90785140Y-71439747D01*
X90784999Y-71414391D01*
X90835871Y-71414391D01*
X90835939Y-71486848D01*
X90836106Y-71552480D01*
X90836363Y-71609710D01*
X90836700Y-71656960D01*
X90837109Y-71692654D01*
X90837581Y-71715215D01*
X90838107Y-71723065D01*
X90840856Y-71720898D01*
X90855461Y-71708136D01*
X90881166Y-71685217D01*
X90916328Y-71653617D01*
X90959306Y-71614815D01*
X91008457Y-71570287D01*
X91062139Y-71521510D01*
X91068737Y-71515509D01*
X91099462Y-71487594D01*
X91143075Y-71448002D01*
X91198896Y-71397348D01*
X91266249Y-71336247D01*
X91344456Y-71265313D01*
X91432839Y-71185161D01*
X91530720Y-71096405D01*
X91637420Y-70999660D01*
X91752263Y-70895541D01*
X91874569Y-70784662D01*
X92003662Y-70667637D01*
X92138864Y-70545082D01*
X92279496Y-70417610D01*
X92424880Y-70285837D01*
X92574339Y-70150377D01*
X92727195Y-70011845D01*
X92882770Y-69870855D01*
X93040386Y-69728021D01*
X94797278Y-68135941D01*
X94797383Y-67746520D01*
X94797488Y-67357100D01*
X94323647Y-67786541D01*
X94294234Y-67813196D01*
X94232818Y-67868850D01*
X94159069Y-67935673D01*
X94073902Y-68012839D01*
X93978228Y-68099520D01*
X93872962Y-68194888D01*
X93759016Y-68298118D01*
X93637304Y-68408381D01*
X93508739Y-68524849D01*
X93374235Y-68646697D01*
X93234704Y-68773096D01*
X93091059Y-68903218D01*
X92944215Y-69036238D01*
X92795084Y-69171327D01*
X92644579Y-69307658D01*
X92493613Y-69444404D01*
X92343101Y-69580738D01*
X90836396Y-70945495D01*
X90835913Y-71334354D01*
X90835910Y-71336685D01*
X90835871Y-71414391D01*
X90784999Y-71414391D01*
X90784714Y-71363406D01*
X90784363Y-71277365D01*
X90784084Y-71181075D01*
X90783874Y-71073988D01*
X90783729Y-70955554D01*
X90783647Y-70825225D01*
X90783624Y-70682451D01*
X90783657Y-70526684D01*
X90783743Y-70357375D01*
X90783878Y-70173974D01*
X90784059Y-69975933D01*
X90784283Y-69762702D01*
X90784547Y-69533733D01*
X90784761Y-69354797D01*
X90785022Y-69140165D01*
X90785275Y-68940815D01*
X90785525Y-68756182D01*
X90785780Y-68585702D01*
X90786044Y-68428810D01*
X90786324Y-68284942D01*
X90786625Y-68153534D01*
X90786955Y-68034021D01*
X90787318Y-67925839D01*
X90787722Y-67828424D01*
X90788171Y-67741212D01*
X90788672Y-67663637D01*
X90789231Y-67595136D01*
X90789854Y-67535145D01*
X90790547Y-67483098D01*
X90791316Y-67438432D01*
X90792166Y-67400583D01*
X90793105Y-67368985D01*
X90794138Y-67343075D01*
X90795271Y-67322289D01*
X90796510Y-67306061D01*
X90797862Y-67293828D01*
X90799331Y-67285026D01*
X90800924Y-67279089D01*
X90802648Y-67275454D01*
X90804508Y-67273556D01*
X90806509Y-67272831D01*
X90808660Y-67272715D01*
X90810335Y-67272765D01*
X90812604Y-67273312D01*
X90814695Y-67274989D01*
X90816619Y-67278427D01*
X90818384Y-67284258D01*
X90820000Y-67293113D01*
X90821476Y-67305624D01*
X90822822Y-67322423D01*
X90824047Y-67344140D01*
X90825160Y-67371408D01*
X90826171Y-67404857D01*
X90827089Y-67445121D01*
X90827923Y-67492830D01*
X90828684Y-67548615D01*
X90829379Y-67613109D01*
X90830019Y-67686943D01*
X90830613Y-67770749D01*
X90831170Y-67865157D01*
X90831700Y-67970800D01*
X90832212Y-68088310D01*
X90832715Y-68218317D01*
X90833219Y-68361454D01*
X90833734Y-68518351D01*
X90834267Y-68689641D01*
X90834830Y-68875955D01*
X90835430Y-69077925D01*
X90840784Y-70883135D01*
X92815708Y-69093234D01*
X92925077Y-68994096D01*
X93086900Y-68847354D01*
X93244808Y-68704095D01*
X93398253Y-68564818D01*
X93546687Y-68430023D01*
X93689563Y-68300209D01*
X93826331Y-68175875D01*
X93956445Y-68057521D01*
X94079357Y-67945645D01*
X94194518Y-67840748D01*
X94301382Y-67743328D01*
X94399400Y-67653885D01*
X94488023Y-67572918D01*
X94566706Y-67500926D01*
X94634899Y-67438409D01*
X94692054Y-67385865D01*
X94737625Y-67343795D01*
X94771063Y-67312697D01*
X94791820Y-67293070D01*
X94799348Y-67285415D01*
X94808459Y-67274323D01*
X94829773Y-67270106D01*
X94851483Y-67272715D01*
X94851472Y-67357100D01*
X94851181Y-69528153D01*
G37*
%TD*%
M02*
